<svg width="90" height="89" viewBox="0 0 90 89" fill="none" xmlns="http://www.w3.org/2000/svg">
<g filter="url(#filter0_di_7930_2507)">
<rect x="17.8936" y="22.054" width="48" height="48" rx="8" transform="rotate(-8 17.8936 22.054)" fill="white" fill-opacity="0.25" shape-rendering="crispEdges"/>
<rect x="18.5995" y="22.5859" width="46.75" height="46.75" rx="7.375" transform="rotate(-8 18.5995 22.5859)" stroke="white" stroke-width="1.25" shape-rendering="crispEdges"/>
<path fill-rule="evenodd" clip-rule="evenodd" d="M44.9929 34.1971C42.653 32.1522 39.1925 31.7338 36.5052 34.0299C33.5984 36.5135 33.1761 40.6963 35.4747 43.6542C36.3472 44.7769 38.0502 46.4637 39.6868 48.0085C41.3426 49.5713 42.9946 51.0481 43.8092 51.7696C43.8143 51.7741 43.8195 51.7787 43.8248 51.7834C43.9014 51.8513 43.9967 51.9358 44.0881 52.0046C44.1975 52.087 44.3547 52.1893 44.5645 52.2519C44.8434 52.3351 45.1432 52.3351 45.4221 52.2519C45.6319 52.1893 45.789 52.087 45.8984 52.0046C45.9898 51.9358 46.0852 51.8513 46.1618 51.7834C46.167 51.7787 46.1722 51.7741 46.1773 51.7696C46.992 51.0481 48.6439 49.5713 50.2997 48.0085C51.9363 46.4637 53.6393 44.7769 54.5118 43.6542C56.8016 40.7077 56.4445 36.4926 53.4709 34.0211C50.7537 31.7627 47.3301 32.1515 44.9929 34.1971Z" fill="url(#paint0_linear_7930_2507)"/>
</g>
<defs>
<filter id="filter0_di_7930_2507" x="-42.1064" y="-44.6265" width="174.213" height="174.213" filterUnits="userSpaceOnUse" color-interpolation-filters="sRGB">
<feFlood flood-opacity="0" result="BackgroundImageFix"/>
<feColorMatrix in="SourceAlpha" type="matrix" values="0 0 0 0 0 0 0 0 0 0 0 0 0 0 0 0 0 0 127 0" result="hardAlpha"/>
<feOffset dy="2"/>
<feGaussianBlur stdDeviation="9"/>
<feComposite in2="hardAlpha" operator="out"/>
<feColorMatrix type="matrix" values="0 0 0 0 0.00784314 0 0 0 0 0.227451 0 0 0 0 0.517647 0 0 0 0.05 0"/>
<feBlend mode="multiply" in2="BackgroundImageFix" result="effect1_dropShadow_7930_2507"/>
<feBlend mode="normal" in="SourceGraphic" in2="effect1_dropShadow_7930_2507" result="shape"/>
<feColorMatrix in="SourceAlpha" type="matrix" values="0 0 0 0 0 0 0 0 0 0 0 0 0 0 0 0 0 0 127 0" result="hardAlpha"/>
<feOffset dy="2"/>
<feGaussianBlur stdDeviation="8"/>
<feComposite in2="hardAlpha" operator="arithmetic" k2="-1" k3="1"/>
<feColorMatrix type="matrix" values="0 0 0 0 1 0 0 0 0 1 0 0 0 0 1 0 0 0 0.8 0"/>
<feBlend mode="normal" in2="shape" result="effect2_innerShadow_7930_2507"/>
</filter>
<linearGradient id="paint0_linear_7930_2507" x1="45" y1="32.4783" x2="45" y2="52.3143" gradientUnits="userSpaceOnUse">
<stop stop-color="#1483F3"/>
<stop offset="1" stop-color="#4BB3F9"/>
</linearGradient>
</defs>
</svg>
