<svg width="487" height="322" viewBox="0 0 487 322" fill="none" xmlns="http://www.w3.org/2000/svg">
<g filter="url(#filter0_di_7936_3260)">
<rect x="47" y="32.5869" width="400" height="250" rx="32" fill="white" fill-opacity="0.25" shape-rendering="crispEdges"/>
<rect x="47.625" y="33.2119" width="398.75" height="248.75" rx="31.375" stroke="white" stroke-width="1.25" shape-rendering="crispEdges"/>
<path d="M201.496 112.587C204.812 112.587 207.5 109.901 207.5 106.587V102.387C207.5 101.91 207.31 101.452 206.972 101.114C206.635 100.777 206.177 100.587 205.699 100.587H201.797V103.219C201.797 103.82 201.833 104.442 202.148 104.953C202.374 105.319 202.676 105.633 203.033 105.873C203.391 106.112 203.796 106.272 204.221 106.341L204.336 106.36C204.383 106.376 204.424 106.407 204.453 106.447C204.483 106.488 204.498 106.537 204.498 106.587C204.498 106.637 204.483 106.686 204.453 106.727C204.424 106.767 204.383 106.798 204.336 106.814L204.221 106.833C203.6 106.934 203.027 107.228 202.582 107.672C202.137 108.117 201.844 108.689 201.742 109.31L201.724 109.425C201.707 109.472 201.677 109.513 201.636 109.542C201.595 109.571 201.546 109.587 201.496 109.587C201.446 109.587 201.397 109.571 201.357 109.542C201.316 109.513 201.285 109.472 201.269 109.425L201.251 109.31C201.181 108.885 201.021 108.48 200.782 108.123C200.542 107.766 200.228 107.464 199.862 107.239C199.35 106.924 198.728 106.887 198.127 106.887H195.5C195.657 110.061 198.281 112.587 201.496 112.587Z" fill="#121212"/>
<path d="M217.839 102.187H219.309L216.441 106.795V110.587H215.193V106.795L212.331 102.187H213.801L215.817 105.433L217.839 102.187ZM221.75 110.743C221.198 110.743 220.694 110.601 220.238 110.317C219.786 110.033 219.424 109.653 219.152 109.177C218.884 108.697 218.75 108.167 218.75 107.587C218.75 107.147 218.828 106.737 218.984 106.357C219.14 105.973 219.354 105.637 219.626 105.349C219.902 105.057 220.222 104.829 220.586 104.665C220.95 104.501 221.338 104.419 221.75 104.419C222.302 104.419 222.804 104.561 223.256 104.845C223.712 105.129 224.074 105.511 224.342 105.991C224.614 106.471 224.75 107.003 224.75 107.587C224.75 108.023 224.672 108.431 224.516 108.811C224.36 109.191 224.144 109.527 223.868 109.819C223.596 110.107 223.278 110.333 222.914 110.497C222.554 110.661 222.166 110.743 221.75 110.743ZM221.75 109.495C222.082 109.495 222.38 109.407 222.644 109.231C222.908 109.055 223.116 108.823 223.268 108.535C223.424 108.243 223.502 107.927 223.502 107.587C223.502 107.239 223.422 106.919 223.262 106.627C223.106 106.335 222.896 106.103 222.632 105.931C222.368 105.755 222.074 105.667 221.75 105.667C221.422 105.667 221.124 105.755 220.856 105.931C220.592 106.107 220.382 106.341 220.226 106.633C220.074 106.925 219.998 107.243 219.998 107.587C219.998 107.943 220.078 108.265 220.238 108.553C220.398 108.841 220.61 109.071 220.874 109.243C221.142 109.411 221.434 109.495 221.75 109.495ZM225.242 108.337V104.587H226.49V108.031C226.49 108.299 226.556 108.543 226.688 108.763C226.82 108.983 226.996 109.159 227.216 109.291C227.436 109.419 227.678 109.483 227.942 109.483C228.21 109.483 228.452 109.419 228.668 109.291C228.888 109.159 229.062 108.983 229.19 108.763C229.322 108.543 229.388 108.299 229.388 108.031V104.587H230.636L230.642 110.587H229.394L229.388 109.939C229.184 110.187 228.93 110.383 228.626 110.527C228.322 110.671 227.996 110.743 227.648 110.743C227.204 110.743 226.8 110.635 226.436 110.419C226.072 110.203 225.782 109.913 225.566 109.549C225.35 109.185 225.242 108.781 225.242 108.337ZM231.725 110.587V104.587H232.973V105.223C233.181 104.975 233.437 104.779 233.741 104.635C234.045 104.491 234.373 104.419 234.725 104.419C234.949 104.419 235.171 104.449 235.391 104.509L234.893 105.769C234.737 105.709 234.581 105.679 234.425 105.679C234.161 105.679 233.919 105.745 233.699 105.877C233.479 106.005 233.303 106.179 233.171 106.399C233.039 106.619 232.973 106.863 232.973 107.131V110.587H231.725ZM238.88 110.587V102.187H241.862C242.294 102.187 242.684 102.275 243.032 102.451C243.384 102.627 243.662 102.881 243.866 103.213C244.074 103.541 244.178 103.935 244.178 104.395C244.178 104.619 244.142 104.839 244.07 105.055C243.998 105.271 243.896 105.461 243.764 105.625C243.632 105.789 243.472 105.905 243.284 105.973C243.54 106.037 243.752 106.153 243.92 106.321C244.092 106.485 244.228 106.677 244.328 106.897C244.428 107.117 244.498 107.345 244.538 107.581C244.582 107.817 244.604 108.041 244.604 108.253C244.604 108.701 244.496 109.101 244.28 109.453C244.064 109.805 243.774 110.083 243.41 110.287C243.05 110.487 242.652 110.587 242.216 110.587H238.88ZM240.128 109.507H242.096C242.352 109.507 242.584 109.443 242.792 109.315C243.004 109.187 243.172 109.011 243.296 108.787C243.42 108.559 243.482 108.303 243.482 108.019C243.482 107.771 243.42 107.537 243.296 107.317C243.172 107.093 243.004 106.913 242.792 106.777C242.584 106.641 242.352 106.573 242.096 106.573H240.128V109.507ZM240.128 105.511H241.73C242.058 105.511 242.34 105.411 242.576 105.211C242.812 105.011 242.93 104.737 242.93 104.389C242.93 104.017 242.812 103.739 242.576 103.555C242.34 103.367 242.058 103.273 241.73 103.273H240.128V105.511ZM245.686 110.587V104.587H246.934V105.223C247.142 104.975 247.398 104.779 247.702 104.635C248.006 104.491 248.334 104.419 248.686 104.419C248.91 104.419 249.132 104.449 249.352 104.509L248.854 105.769C248.698 105.709 248.542 105.679 248.386 105.679C248.122 105.679 247.88 105.745 247.66 105.877C247.44 106.005 247.264 106.179 247.132 106.399C247 106.619 246.934 106.863 246.934 107.131V110.587H245.686ZM254.312 104.587H255.56V110.587H254.306L254.258 109.717C254.082 110.025 253.844 110.273 253.544 110.461C253.244 110.649 252.89 110.743 252.482 110.743C252.042 110.743 251.628 110.661 251.24 110.497C250.852 110.329 250.51 110.097 250.214 109.801C249.922 109.505 249.694 109.165 249.53 108.781C249.366 108.393 249.284 107.977 249.284 107.533C249.284 107.105 249.364 106.703 249.524 106.327C249.684 105.947 249.906 105.615 250.19 105.331C250.474 105.047 250.802 104.825 251.174 104.665C251.55 104.501 251.952 104.419 252.38 104.419C252.816 104.419 253.2 104.519 253.532 104.719C253.868 104.915 254.146 105.167 254.366 105.475L254.312 104.587ZM252.452 109.537C252.804 109.537 253.112 109.451 253.376 109.279C253.64 109.103 253.844 108.867 253.988 108.571C254.136 108.275 254.21 107.947 254.21 107.587C254.21 107.223 254.136 106.893 253.988 106.597C253.84 106.301 253.634 106.067 253.37 105.895C253.11 105.719 252.804 105.631 252.452 105.631C252.104 105.631 251.786 105.719 251.498 105.895C251.21 106.071 250.982 106.307 250.814 106.603C250.646 106.899 250.562 107.227 250.562 107.587C250.562 107.951 250.648 108.281 250.82 108.577C250.996 108.869 251.226 109.103 251.51 109.279C251.798 109.451 252.112 109.537 252.452 109.537ZM262.037 106.825V110.587H260.789V107.131C260.789 106.863 260.723 106.619 260.591 106.399C260.463 106.179 260.289 106.005 260.069 105.877C259.853 105.745 259.609 105.679 259.337 105.679C259.073 105.679 258.831 105.745 258.611 105.877C258.391 106.005 258.215 106.179 258.083 106.399C257.951 106.619 257.885 106.863 257.885 107.131V110.587H256.637V104.587H257.885V105.223C258.093 104.975 258.349 104.779 258.653 104.635C258.957 104.491 259.285 104.419 259.637 104.419C260.081 104.419 260.485 104.527 260.849 104.743C261.213 104.959 261.501 105.249 261.713 105.613C261.929 105.977 262.037 106.381 262.037 106.825ZM267.672 101.587H268.92V110.587H267.672V109.705C267.476 110.017 267.22 110.269 266.904 110.461C266.588 110.649 266.218 110.743 265.794 110.743C265.358 110.743 264.95 110.661 264.57 110.497C264.19 110.333 263.854 110.107 263.562 109.819C263.274 109.527 263.048 109.191 262.884 108.811C262.72 108.431 262.638 108.023 262.638 107.587C262.638 107.151 262.72 106.743 262.884 106.363C263.048 105.979 263.274 105.643 263.562 105.355C263.854 105.063 264.19 104.835 264.57 104.671C264.95 104.507 265.358 104.425 265.794 104.425C266.218 104.425 266.588 104.521 266.904 104.713C267.22 104.901 267.476 105.149 267.672 105.457V101.587ZM265.806 109.537C266.158 109.537 266.466 109.451 266.73 109.279C266.994 109.103 267.198 108.867 267.342 108.571C267.49 108.275 267.564 107.947 267.564 107.587C267.564 107.223 267.49 106.893 267.342 106.597C267.194 106.301 266.988 106.067 266.724 105.895C266.464 105.719 266.158 105.631 265.806 105.631C265.458 105.631 265.14 105.719 264.852 105.895C264.568 106.071 264.34 106.307 264.168 106.603C264 106.899 263.916 107.227 263.916 107.587C263.916 107.951 264.002 108.281 264.174 108.577C264.35 108.869 264.58 109.103 264.864 109.279C265.152 109.451 265.466 109.537 265.806 109.537ZM273 110.587V102.187H274.248V109.339H277.866V110.587H273ZM281.168 110.743C280.616 110.743 280.112 110.601 279.656 110.317C279.204 110.033 278.842 109.653 278.57 109.177C278.302 108.697 278.168 108.167 278.168 107.587C278.168 107.147 278.246 106.737 278.402 106.357C278.558 105.973 278.772 105.637 279.044 105.349C279.32 105.057 279.64 104.829 280.004 104.665C280.368 104.501 280.756 104.419 281.168 104.419C281.72 104.419 282.222 104.561 282.674 104.845C283.13 105.129 283.492 105.511 283.76 105.991C284.032 106.471 284.168 107.003 284.168 107.587C284.168 108.023 284.09 108.431 283.934 108.811C283.778 109.191 283.562 109.527 283.286 109.819C283.014 110.107 282.696 110.333 282.332 110.497C281.972 110.661 281.584 110.743 281.168 110.743ZM281.168 109.495C281.5 109.495 281.798 109.407 282.062 109.231C282.326 109.055 282.534 108.823 282.686 108.535C282.842 108.243 282.92 107.927 282.92 107.587C282.92 107.239 282.84 106.919 282.68 106.627C282.524 106.335 282.314 106.103 282.05 105.931C281.786 105.755 281.492 105.667 281.168 105.667C280.84 105.667 280.542 105.755 280.274 105.931C280.01 106.107 279.8 106.341 279.644 106.633C279.492 106.925 279.416 107.243 279.416 107.587C279.416 107.943 279.496 108.265 279.656 108.553C279.816 108.841 280.028 109.071 280.292 109.243C280.56 109.411 280.852 109.495 281.168 109.495ZM289.572 104.587H290.82V110.743C290.82 111.155 290.732 111.535 290.556 111.883C290.384 112.231 290.15 112.531 289.854 112.783C289.558 113.039 289.218 113.237 288.834 113.377C288.454 113.517 288.056 113.587 287.64 113.587C287.22 113.587 286.816 113.497 286.428 113.317C286.04 113.141 285.698 112.901 285.402 112.597C285.11 112.293 284.892 111.949 284.748 111.565L285.894 111.049C285.974 111.297 286.102 111.517 286.278 111.709C286.458 111.901 286.666 112.053 286.902 112.165C287.142 112.277 287.388 112.333 287.64 112.333C287.888 112.333 288.126 112.293 288.354 112.213C288.586 112.137 288.792 112.029 288.972 111.889C289.156 111.749 289.302 111.581 289.41 111.385C289.518 111.189 289.572 110.975 289.572 110.743V109.729C289.376 110.033 289.124 110.279 288.816 110.467C288.508 110.651 288.15 110.743 287.742 110.743C287.318 110.743 286.918 110.661 286.542 110.497C286.166 110.333 285.836 110.107 285.552 109.819C285.268 109.527 285.046 109.191 284.886 108.811C284.726 108.431 284.646 108.023 284.646 107.587C284.646 107.151 284.726 106.743 284.886 106.363C285.046 105.979 285.268 105.643 285.552 105.355C285.836 105.063 286.166 104.835 286.542 104.671C286.918 104.507 287.318 104.425 287.742 104.425C288.15 104.425 288.508 104.519 288.816 104.707C289.124 104.891 289.376 105.137 289.572 105.445V104.587ZM287.754 109.537C288.102 109.537 288.406 109.449 288.666 109.273C288.926 109.093 289.128 108.855 289.272 108.559C289.416 108.263 289.488 107.939 289.488 107.587C289.488 107.227 289.414 106.901 289.266 106.609C289.122 106.313 288.92 106.077 288.66 105.901C288.4 105.721 288.098 105.631 287.754 105.631C287.418 105.631 287.11 105.719 286.83 105.895C286.554 106.071 286.334 106.307 286.17 106.603C286.006 106.899 285.924 107.227 285.924 107.587C285.924 107.947 286.006 108.275 286.17 108.571C286.338 108.867 286.56 109.103 286.836 109.279C287.116 109.451 287.422 109.537 287.754 109.537ZM294.674 110.743C294.122 110.743 293.618 110.601 293.162 110.317C292.71 110.033 292.348 109.653 292.076 109.177C291.808 108.697 291.674 108.167 291.674 107.587C291.674 107.147 291.752 106.737 291.908 106.357C292.064 105.973 292.278 105.637 292.55 105.349C292.826 105.057 293.146 104.829 293.51 104.665C293.874 104.501 294.262 104.419 294.674 104.419C295.226 104.419 295.728 104.561 296.18 104.845C296.636 105.129 296.998 105.511 297.266 105.991C297.538 106.471 297.674 107.003 297.674 107.587C297.674 108.023 297.596 108.431 297.44 108.811C297.284 109.191 297.068 109.527 296.792 109.819C296.52 110.107 296.202 110.333 295.838 110.497C295.478 110.661 295.09 110.743 294.674 110.743ZM294.674 109.495C295.006 109.495 295.304 109.407 295.568 109.231C295.832 109.055 296.04 108.823 296.192 108.535C296.348 108.243 296.426 107.927 296.426 107.587C296.426 107.239 296.346 106.919 296.186 106.627C296.03 106.335 295.82 106.103 295.556 105.931C295.292 105.755 294.998 105.667 294.674 105.667C294.346 105.667 294.048 105.755 293.78 105.931C293.516 106.107 293.306 106.341 293.15 106.633C292.998 106.925 292.922 107.243 292.922 107.587C292.922 107.943 293.002 108.265 293.162 108.553C293.322 108.841 293.534 109.071 293.798 109.243C294.066 109.411 294.358 109.495 294.674 109.495Z" fill="#121212"/>
<path d="M164.373 134.587H166.823L162.043 142.267V148.587H159.963V142.267L155.193 134.587H157.643L161.003 139.997L164.373 134.587ZM170.892 148.847C169.972 148.847 169.132 148.61 168.372 148.137C167.618 147.664 167.015 147.03 166.562 146.237C166.115 145.437 165.892 144.554 165.892 143.587C165.892 142.854 166.022 142.17 166.282 141.537C166.542 140.897 166.898 140.337 167.352 139.857C167.812 139.37 168.345 138.99 168.952 138.717C169.558 138.444 170.205 138.307 170.892 138.307C171.812 138.307 172.648 138.544 173.402 139.017C174.162 139.49 174.765 140.127 175.212 140.927C175.665 141.727 175.892 142.614 175.892 143.587C175.892 144.314 175.762 144.994 175.502 145.627C175.242 146.26 174.882 146.82 174.422 147.307C173.968 147.787 173.438 148.164 172.832 148.437C172.232 148.71 171.585 148.847 170.892 148.847ZM170.892 146.767C171.445 146.767 171.942 146.62 172.382 146.327C172.822 146.034 173.168 145.647 173.422 145.167C173.682 144.68 173.812 144.154 173.812 143.587C173.812 143.007 173.678 142.474 173.412 141.987C173.152 141.5 172.802 141.114 172.362 140.827C171.922 140.534 171.432 140.387 170.892 140.387C170.345 140.387 169.848 140.534 169.402 140.827C168.962 141.12 168.612 141.51 168.352 141.997C168.098 142.484 167.972 143.014 167.972 143.587C167.972 144.18 168.105 144.717 168.372 145.197C168.638 145.677 168.992 146.06 169.432 146.347C169.878 146.627 170.365 146.767 170.892 146.767ZM176.712 144.837V138.587H178.792V144.327C178.792 144.774 178.902 145.18 179.122 145.547C179.342 145.914 179.635 146.207 180.002 146.427C180.369 146.64 180.772 146.747 181.212 146.747C181.659 146.747 182.062 146.64 182.422 146.427C182.789 146.207 183.079 145.914 183.292 145.547C183.512 145.18 183.622 144.774 183.622 144.327V138.587H185.702L185.712 148.587H183.632L183.622 147.507C183.282 147.92 182.859 148.247 182.352 148.487C181.845 148.727 181.302 148.847 180.722 148.847C179.982 148.847 179.309 148.667 178.702 148.307C178.095 147.947 177.612 147.464 177.252 146.857C176.892 146.25 176.712 145.577 176.712 144.837ZM187.518 148.587V138.587H189.598V139.647C189.944 139.234 190.371 138.907 190.878 138.667C191.384 138.427 191.931 138.307 192.518 138.307C192.891 138.307 193.261 138.357 193.628 138.457L192.798 140.557C192.538 140.457 192.278 140.407 192.018 140.407C191.578 140.407 191.174 140.517 190.808 140.737C190.441 140.95 190.148 141.24 189.928 141.607C189.708 141.974 189.598 142.38 189.598 142.827V148.587H187.518ZM199.442 148.587V134.587H204.412C205.132 134.587 205.782 134.734 206.362 135.027C206.948 135.32 207.412 135.744 207.752 136.297C208.098 136.844 208.272 137.5 208.272 138.267C208.272 138.64 208.212 139.007 208.092 139.367C207.972 139.727 207.802 140.044 207.582 140.317C207.362 140.59 207.095 140.784 206.782 140.897C207.208 141.004 207.562 141.197 207.842 141.477C208.128 141.75 208.355 142.07 208.522 142.437C208.688 142.804 208.805 143.184 208.872 143.577C208.945 143.97 208.982 144.344 208.982 144.697C208.982 145.444 208.802 146.11 208.442 146.697C208.082 147.284 207.598 147.747 206.992 148.087C206.392 148.42 205.728 148.587 205.002 148.587H199.442ZM201.522 146.787H204.802C205.228 146.787 205.615 146.68 205.962 146.467C206.315 146.254 206.595 145.96 206.802 145.587C207.008 145.207 207.112 144.78 207.112 144.307C207.112 143.894 207.008 143.504 206.802 143.137C206.595 142.764 206.315 142.464 205.962 142.237C205.615 142.01 205.228 141.897 204.802 141.897H201.522V146.787ZM201.522 140.127H204.192C204.738 140.127 205.208 139.96 205.602 139.627C205.995 139.294 206.192 138.837 206.192 138.257C206.192 137.637 205.995 137.174 205.602 136.867C205.208 136.554 204.738 136.397 204.192 136.397H201.522V140.127ZM210.785 148.587V138.587H212.865V139.647C213.211 139.234 213.638 138.907 214.145 138.667C214.651 138.427 215.198 138.307 215.785 138.307C216.158 138.307 216.528 138.357 216.895 138.457L216.065 140.557C215.805 140.457 215.545 140.407 215.285 140.407C214.845 140.407 214.441 140.517 214.075 140.737C213.708 140.95 213.415 141.24 213.195 141.607C212.975 141.974 212.865 142.38 212.865 142.827V148.587H210.785ZM225.162 138.587H227.242V148.587H225.152L225.072 147.137C224.778 147.65 224.382 148.064 223.882 148.377C223.382 148.69 222.792 148.847 222.112 148.847C221.378 148.847 220.688 148.71 220.042 148.437C219.395 148.157 218.825 147.77 218.332 147.277C217.845 146.784 217.465 146.217 217.192 145.577C216.918 144.93 216.782 144.237 216.782 143.497C216.782 142.784 216.915 142.114 217.182 141.487C217.448 140.854 217.818 140.3 218.292 139.827C218.765 139.354 219.312 138.984 219.932 138.717C220.558 138.444 221.228 138.307 221.942 138.307C222.668 138.307 223.308 138.474 223.862 138.807C224.422 139.134 224.885 139.554 225.252 140.067L225.162 138.587ZM222.062 146.837C222.648 146.837 223.162 146.694 223.602 146.407C224.042 146.114 224.382 145.72 224.622 145.227C224.868 144.734 224.992 144.187 224.992 143.587C224.992 142.98 224.868 142.43 224.622 141.937C224.375 141.444 224.032 141.054 223.592 140.767C223.158 140.474 222.648 140.327 222.062 140.327C221.482 140.327 220.952 140.474 220.472 140.767C219.992 141.06 219.612 141.454 219.332 141.947C219.052 142.44 218.912 142.987 218.912 143.587C218.912 144.194 219.055 144.744 219.342 145.237C219.635 145.724 220.018 146.114 220.492 146.407C220.972 146.694 221.495 146.837 222.062 146.837ZM238.037 142.317V148.587H235.957V142.827C235.957 142.38 235.847 141.974 235.627 141.607C235.414 141.24 235.124 140.95 234.757 140.737C234.397 140.517 233.99 140.407 233.537 140.407C233.097 140.407 232.694 140.517 232.327 140.737C231.96 140.95 231.667 141.24 231.447 141.607C231.227 141.974 231.117 142.38 231.117 142.827V148.587H229.037V138.587H231.117V139.647C231.464 139.234 231.89 138.907 232.397 138.667C232.904 138.427 233.45 138.307 234.037 138.307C234.777 138.307 235.45 138.487 236.057 138.847C236.664 139.207 237.144 139.69 237.497 140.297C237.857 140.904 238.037 141.577 238.037 142.317ZM247.428 133.587H249.508V148.587H247.428V147.117C247.101 147.637 246.675 148.057 246.148 148.377C245.621 148.69 245.005 148.847 244.298 148.847C243.571 148.847 242.891 148.71 242.258 148.437C241.625 148.164 241.065 147.787 240.578 147.307C240.098 146.82 239.721 146.26 239.448 145.627C239.175 144.994 239.038 144.314 239.038 143.587C239.038 142.86 239.175 142.18 239.448 141.547C239.721 140.907 240.098 140.347 240.578 139.867C241.065 139.38 241.625 139 242.258 138.727C242.891 138.454 243.571 138.317 244.298 138.317C245.005 138.317 245.621 138.477 246.148 138.797C246.675 139.11 247.101 139.524 247.428 140.037V133.587ZM244.318 146.837C244.905 146.837 245.418 146.694 245.858 146.407C246.298 146.114 246.638 145.72 246.878 145.227C247.125 144.734 247.248 144.187 247.248 143.587C247.248 142.98 247.125 142.43 246.878 141.937C246.631 141.444 246.288 141.054 245.848 140.767C245.415 140.474 244.905 140.327 244.318 140.327C243.738 140.327 243.208 140.474 242.728 140.767C242.255 141.06 241.875 141.454 241.588 141.947C241.308 142.44 241.168 142.987 241.168 143.587C241.168 144.194 241.311 144.744 241.598 145.237C241.891 145.724 242.275 146.114 242.748 146.407C243.228 146.694 243.751 146.837 244.318 146.837ZM264.718 134.587H266.798V148.587H264.718V142.127H258.388V148.587H256.308V134.587H258.388V140.047H264.718V134.587ZM273.262 148.847C272.342 148.847 271.502 148.61 270.742 148.137C269.989 147.664 269.385 147.03 268.932 146.237C268.485 145.437 268.262 144.554 268.262 143.587C268.262 142.854 268.392 142.17 268.652 141.537C268.912 140.897 269.269 140.337 269.722 139.857C270.182 139.37 270.715 138.99 271.322 138.717C271.929 138.444 272.575 138.307 273.262 138.307C274.029 138.307 274.732 138.467 275.372 138.787C276.012 139.1 276.559 139.537 277.012 140.097C277.465 140.65 277.799 141.29 278.012 142.017C278.225 142.737 278.289 143.504 278.202 144.317H270.492C270.579 144.777 270.745 145.194 270.992 145.567C271.245 145.934 271.565 146.224 271.952 146.437C272.345 146.65 272.782 146.76 273.262 146.767C273.769 146.767 274.229 146.64 274.642 146.387C275.062 146.134 275.405 145.784 275.672 145.337L277.782 145.827C277.382 146.714 276.779 147.44 275.972 148.007C275.165 148.567 274.262 148.847 273.262 148.847ZM270.422 142.727H276.102C276.035 142.247 275.865 141.814 275.592 141.427C275.325 141.034 274.989 140.724 274.582 140.497C274.182 140.264 273.742 140.147 273.262 140.147C272.789 140.147 272.349 140.26 271.942 140.487C271.542 140.714 271.209 141.024 270.942 141.417C270.682 141.804 270.509 142.24 270.422 142.727ZM287.419 138.587H289.499V148.587H287.409L287.329 147.137C287.035 147.65 286.639 148.064 286.139 148.377C285.639 148.69 285.049 148.847 284.369 148.847C283.635 148.847 282.945 148.71 282.299 148.437C281.652 148.157 281.082 147.77 280.589 147.277C280.102 146.784 279.722 146.217 279.449 145.577C279.175 144.93 279.039 144.237 279.039 143.497C279.039 142.784 279.172 142.114 279.439 141.487C279.705 140.854 280.075 140.3 280.549 139.827C281.022 139.354 281.569 138.984 282.189 138.717C282.815 138.444 283.485 138.307 284.199 138.307C284.925 138.307 285.565 138.474 286.119 138.807C286.679 139.134 287.142 139.554 287.509 140.067L287.419 138.587ZM284.319 146.837C284.905 146.837 285.419 146.694 285.859 146.407C286.299 146.114 286.639 145.72 286.879 145.227C287.125 144.734 287.249 144.187 287.249 143.587C287.249 142.98 287.125 142.43 286.879 141.937C286.632 141.444 286.289 141.054 285.849 140.767C285.415 140.474 284.905 140.327 284.319 140.327C283.739 140.327 283.209 140.474 282.729 140.767C282.249 141.06 281.869 141.454 281.589 141.947C281.309 142.44 281.169 142.987 281.169 143.587C281.169 144.194 281.312 144.744 281.599 145.237C281.892 145.724 282.275 146.114 282.749 146.407C283.229 146.694 283.752 146.837 284.319 146.837ZM298.889 133.587H300.969V148.587H298.889V147.117C298.562 147.637 298.136 148.057 297.609 148.377C297.082 148.69 296.466 148.847 295.759 148.847C295.032 148.847 294.352 148.71 293.719 148.437C293.086 148.164 292.526 147.787 292.039 147.307C291.559 146.82 291.182 146.26 290.909 145.627C290.636 144.994 290.499 144.314 290.499 143.587C290.499 142.86 290.636 142.18 290.909 141.547C291.182 140.907 291.559 140.347 292.039 139.867C292.526 139.38 293.086 139 293.719 138.727C294.352 138.454 295.032 138.317 295.759 138.317C296.466 138.317 297.082 138.477 297.609 138.797C298.136 139.11 298.562 139.524 298.889 140.037V133.587ZM295.779 146.837C296.366 146.837 296.879 146.694 297.319 146.407C297.759 146.114 298.099 145.72 298.339 145.227C298.586 144.734 298.709 144.187 298.709 143.587C298.709 142.98 298.586 142.43 298.339 141.937C298.092 141.444 297.749 141.054 297.309 140.767C296.876 140.474 296.366 140.327 295.779 140.327C295.199 140.327 294.669 140.474 294.189 140.767C293.716 141.06 293.336 141.454 293.049 141.947C292.769 142.44 292.629 142.987 292.629 143.587C292.629 144.194 292.772 144.744 293.059 145.237C293.352 145.724 293.736 146.114 294.209 146.407C294.689 146.694 295.212 146.837 295.779 146.837ZM303.164 138.587H305.244V148.587H303.164V138.587ZM304.224 137.137C303.904 137.137 303.638 137.034 303.424 136.827C303.211 136.62 303.104 136.36 303.104 136.047C303.104 135.74 303.211 135.484 303.424 135.277C303.638 135.064 303.901 134.957 304.214 134.957C304.521 134.957 304.781 135.064 304.994 135.277C305.208 135.484 305.314 135.74 305.314 136.047C305.314 136.36 305.208 136.62 304.994 136.827C304.788 137.034 304.531 137.137 304.224 137.137ZM316.359 142.317V148.587H314.279V142.827C314.279 142.38 314.169 141.974 313.949 141.607C313.736 141.24 313.446 140.95 313.079 140.737C312.719 140.517 312.312 140.407 311.859 140.407C311.419 140.407 311.016 140.517 310.649 140.737C310.282 140.95 309.989 141.24 309.769 141.607C309.549 141.974 309.439 142.38 309.439 142.827V148.587H307.359V138.587H309.439V139.647C309.786 139.234 310.212 138.907 310.719 138.667C311.226 138.427 311.772 138.307 312.359 138.307C313.099 138.307 313.772 138.487 314.379 138.847C314.986 139.207 315.466 139.69 315.819 140.297C316.179 140.904 316.359 141.577 316.359 142.317ZM325.57 138.587H327.65V148.847C327.65 149.534 327.503 150.167 327.21 150.747C326.923 151.327 326.533 151.827 326.04 152.247C325.546 152.674 324.98 153.004 324.34 153.237C323.706 153.47 323.043 153.587 322.35 153.587C321.65 153.587 320.976 153.437 320.33 153.137C319.683 152.844 319.113 152.444 318.62 151.937C318.133 151.43 317.77 150.857 317.53 150.217L319.44 149.357C319.573 149.77 319.786 150.137 320.08 150.457C320.38 150.777 320.726 151.03 321.12 151.217C321.52 151.404 321.93 151.497 322.35 151.497C322.763 151.497 323.16 151.43 323.54 151.297C323.926 151.17 324.27 150.99 324.57 150.757C324.876 150.524 325.12 150.244 325.3 149.917C325.48 149.59 325.57 149.234 325.57 148.847V147.157C325.243 147.664 324.823 148.074 324.31 148.387C323.796 148.694 323.2 148.847 322.52 148.847C321.813 148.847 321.146 148.71 320.52 148.437C319.893 148.164 319.343 147.787 318.87 147.307C318.396 146.82 318.026 146.26 317.76 145.627C317.493 144.994 317.36 144.314 317.36 143.587C317.36 142.86 317.493 142.18 317.76 141.547C318.026 140.907 318.396 140.347 318.87 139.867C319.343 139.38 319.893 139 320.52 138.727C321.146 138.454 321.813 138.317 322.52 138.317C323.2 138.317 323.796 138.474 324.31 138.787C324.823 139.094 325.243 139.504 325.57 140.017V138.587ZM322.54 146.837C323.12 146.837 323.626 146.69 324.06 146.397C324.493 146.097 324.83 145.7 325.07 145.207C325.31 144.714 325.43 144.174 325.43 143.587C325.43 142.987 325.306 142.444 325.06 141.957C324.82 141.464 324.483 141.07 324.05 140.777C323.616 140.477 323.113 140.327 322.54 140.327C321.98 140.327 321.466 140.474 321 140.767C320.54 141.06 320.173 141.454 319.9 141.947C319.626 142.44 319.49 142.987 319.49 143.587C319.49 144.187 319.626 144.734 319.9 145.227C320.18 145.72 320.55 146.114 321.01 146.407C321.476 146.694 321.986 146.837 322.54 146.837ZM335.724 148.587V136.667H334.054L334.624 134.587H337.804V148.587H335.724Z" fill="#121212"/>
<path d="M139.488 172.701C139.16 172.693 138.84 172.633 138.528 172.521C138.216 172.409 137.944 172.257 137.712 172.065C137.48 171.873 137.314 171.655 137.214 171.411L137.94 171.099C138.004 171.255 138.122 171.399 138.294 171.531C138.47 171.659 138.67 171.763 138.894 171.843C139.118 171.919 139.34 171.957 139.56 171.957C139.804 171.957 140.032 171.917 140.244 171.837C140.456 171.757 140.628 171.643 140.76 171.495C140.896 171.343 140.964 171.165 140.964 170.961C140.964 170.741 140.892 170.569 140.748 170.445C140.604 170.317 140.422 170.217 140.202 170.145C139.982 170.069 139.756 169.997 139.524 169.929C139.1 169.813 138.726 169.685 138.402 169.545C138.078 169.405 137.824 169.227 137.64 169.011C137.46 168.791 137.37 168.509 137.37 168.165C137.37 167.801 137.472 167.487 137.676 167.223C137.884 166.955 138.154 166.749 138.486 166.605C138.822 166.457 139.18 166.383 139.56 166.383C140.048 166.383 140.492 166.489 140.892 166.701C141.296 166.913 141.588 167.195 141.768 167.547L141.09 167.949C141.018 167.785 140.904 167.643 140.748 167.523C140.592 167.403 140.414 167.309 140.214 167.241C140.018 167.173 139.818 167.137 139.614 167.133C139.358 167.129 139.12 167.167 138.9 167.247C138.68 167.323 138.502 167.437 138.366 167.589C138.234 167.741 138.168 167.927 138.168 168.147C138.168 168.367 138.234 168.535 138.366 168.651C138.498 168.763 138.676 168.855 138.9 168.927C139.128 168.995 139.384 169.075 139.668 169.167C140.032 169.283 140.374 169.415 140.694 169.563C141.014 169.711 141.272 169.895 141.468 170.115C141.664 170.335 141.76 170.613 141.756 170.949C141.756 171.309 141.648 171.623 141.432 171.891C141.216 172.159 140.936 172.365 140.592 172.509C140.248 172.649 139.88 172.713 139.488 172.701ZM148.022 168.873V172.587H147.182V169.041C147.182 168.713 147.102 168.415 146.942 168.147C146.782 167.879 146.568 167.665 146.3 167.505C146.032 167.345 145.734 167.265 145.406 167.265C145.082 167.265 144.784 167.345 144.512 167.505C144.244 167.665 144.03 167.879 143.87 168.147C143.71 168.415 143.63 168.713 143.63 169.041V172.587H142.79V163.587H143.63V167.415C143.842 167.111 144.118 166.869 144.458 166.689C144.798 166.509 145.168 166.419 145.568 166.419C146.02 166.419 146.432 166.529 146.804 166.749C147.176 166.969 147.472 167.265 147.692 167.637C147.912 168.009 148.022 168.421 148.022 168.873ZM151.747 172.743C151.195 172.743 150.691 172.601 150.235 172.317C149.783 172.033 149.421 171.653 149.149 171.177C148.881 170.697 148.747 170.167 148.747 169.587C148.747 169.147 148.825 168.737 148.981 168.357C149.137 167.973 149.351 167.637 149.623 167.349C149.899 167.057 150.219 166.829 150.583 166.665C150.947 166.501 151.335 166.419 151.747 166.419C152.299 166.419 152.801 166.561 153.253 166.845C153.709 167.129 154.071 167.511 154.339 167.991C154.611 168.471 154.747 169.003 154.747 169.587C154.747 170.023 154.669 170.431 154.513 170.811C154.357 171.191 154.141 171.527 153.865 171.819C153.593 172.107 153.275 172.333 152.911 172.497C152.551 172.661 152.163 172.743 151.747 172.743ZM151.747 171.903C152.155 171.903 152.521 171.797 152.845 171.585C153.173 171.369 153.431 171.085 153.619 170.733C153.811 170.381 153.907 169.999 153.907 169.587C153.907 169.167 153.811 168.781 153.619 168.429C153.427 168.073 153.167 167.789 152.839 167.577C152.515 167.365 152.151 167.259 151.747 167.259C151.339 167.259 150.971 167.367 150.643 167.583C150.319 167.795 150.061 168.077 149.869 168.429C149.681 168.781 149.587 169.167 149.587 169.587C149.587 170.019 149.685 170.411 149.881 170.763C150.077 171.111 150.339 171.389 150.667 171.597C150.995 171.801 151.355 171.903 151.747 171.903ZM155.763 172.587V166.587H156.603V167.415C156.815 167.111 157.091 166.869 157.431 166.689C157.771 166.509 158.141 166.419 158.541 166.419C158.773 166.419 158.997 166.449 159.213 166.509L158.871 167.343C158.703 167.291 158.539 167.265 158.379 167.265C158.055 167.265 157.757 167.345 157.485 167.505C157.217 167.665 157.003 167.879 156.843 168.147C156.683 168.415 156.603 168.713 156.603 169.041V172.587H155.763ZM163.118 167.427H161.684L161.678 172.587H160.838L160.844 167.427H159.758V166.587H160.844L160.838 164.703H161.678L161.684 166.587H163.118V167.427ZM172.01 163.587H172.85V172.587H172.01V171.465C171.802 171.849 171.516 172.159 171.152 172.395C170.792 172.627 170.364 172.743 169.868 172.743C169.432 172.743 169.024 172.661 168.644 172.497C168.264 172.333 167.928 172.107 167.636 171.819C167.348 171.527 167.122 171.191 166.958 170.811C166.794 170.431 166.712 170.023 166.712 169.587C166.712 169.151 166.794 168.743 166.958 168.363C167.122 167.979 167.348 167.643 167.636 167.355C167.928 167.063 168.264 166.835 168.644 166.671C169.024 166.507 169.432 166.425 169.868 166.425C170.364 166.425 170.792 166.543 171.152 166.779C171.516 167.011 171.802 167.317 172.01 167.697V163.587ZM169.874 171.927C170.302 171.927 170.67 171.823 170.978 171.615C171.286 171.403 171.522 171.119 171.686 170.763C171.854 170.407 171.938 170.015 171.938 169.587C171.938 169.147 171.854 168.751 171.686 168.399C171.518 168.043 171.28 167.761 170.972 167.553C170.664 167.345 170.298 167.241 169.874 167.241C169.45 167.241 169.064 167.347 168.716 167.559C168.368 167.767 168.09 168.049 167.882 168.405C167.674 168.761 167.57 169.155 167.57 169.587C167.57 170.023 167.676 170.419 167.888 170.775C168.1 171.127 168.38 171.407 168.728 171.615C169.08 171.823 169.462 171.927 169.874 171.927ZM176.883 172.743C176.331 172.743 175.827 172.601 175.371 172.317C174.919 172.033 174.557 171.653 174.285 171.177C174.017 170.697 173.883 170.167 173.883 169.587C173.883 169.147 173.961 168.737 174.117 168.357C174.273 167.973 174.487 167.637 174.759 167.349C175.035 167.057 175.355 166.829 175.719 166.665C176.083 166.501 176.471 166.419 176.883 166.419C177.327 166.419 177.735 166.507 178.107 166.683C178.483 166.859 178.805 167.105 179.073 167.421C179.345 167.737 179.549 168.107 179.685 168.531C179.825 168.955 179.883 169.413 179.859 169.905H174.771C174.819 170.285 174.939 170.625 175.131 170.925C175.327 171.225 175.575 171.463 175.875 171.639C176.179 171.811 176.515 171.899 176.883 171.903C177.283 171.903 177.643 171.799 177.963 171.591C178.287 171.383 178.547 171.097 178.743 170.733L179.595 170.931C179.355 171.463 178.993 171.899 178.509 172.239C178.025 172.575 177.483 172.743 176.883 172.743ZM174.747 169.227H179.013C178.985 168.855 178.871 168.515 178.671 168.207C178.475 167.895 178.221 167.647 177.909 167.463C177.597 167.275 177.255 167.181 176.883 167.181C176.511 167.181 176.171 167.273 175.863 167.457C175.555 167.637 175.303 167.883 175.107 168.195C174.911 168.503 174.791 168.847 174.747 169.227ZM182.754 172.701C182.426 172.693 182.106 172.633 181.794 172.521C181.482 172.409 181.21 172.257 180.978 172.065C180.746 171.873 180.58 171.655 180.48 171.411L181.206 171.099C181.27 171.255 181.388 171.399 181.56 171.531C181.736 171.659 181.936 171.763 182.16 171.843C182.384 171.919 182.606 171.957 182.826 171.957C183.07 171.957 183.298 171.917 183.51 171.837C183.722 171.757 183.894 171.643 184.026 171.495C184.162 171.343 184.23 171.165 184.23 170.961C184.23 170.741 184.158 170.569 184.014 170.445C183.87 170.317 183.688 170.217 183.468 170.145C183.248 170.069 183.022 169.997 182.79 169.929C182.366 169.813 181.992 169.685 181.668 169.545C181.344 169.405 181.09 169.227 180.906 169.011C180.726 168.791 180.636 168.509 180.636 168.165C180.636 167.801 180.738 167.487 180.942 167.223C181.15 166.955 181.42 166.749 181.752 166.605C182.088 166.457 182.446 166.383 182.826 166.383C183.314 166.383 183.758 166.489 184.158 166.701C184.562 166.913 184.854 167.195 185.034 167.547L184.356 167.949C184.284 167.785 184.17 167.643 184.014 167.523C183.858 167.403 183.68 167.309 183.48 167.241C183.284 167.173 183.084 167.137 182.88 167.133C182.624 167.129 182.386 167.167 182.166 167.247C181.946 167.323 181.768 167.437 181.632 167.589C181.5 167.741 181.434 167.927 181.434 168.147C181.434 168.367 181.5 168.535 181.632 168.651C181.764 168.763 181.942 168.855 182.166 168.927C182.394 168.995 182.65 169.075 182.934 169.167C183.298 169.283 183.64 169.415 183.96 169.563C184.28 169.711 184.538 169.895 184.734 170.115C184.93 170.335 185.026 170.613 185.022 170.949C185.022 171.309 184.914 171.623 184.698 171.891C184.482 172.159 184.202 172.365 183.858 172.509C183.514 172.649 183.146 172.713 182.754 172.701ZM190.293 171.081L191.043 171.489C190.771 171.869 190.425 172.173 190.005 172.401C189.589 172.629 189.137 172.743 188.649 172.743C188.097 172.743 187.593 172.601 187.137 172.317C186.685 172.033 186.323 171.653 186.051 171.177C185.783 170.697 185.649 170.167 185.649 169.587C185.649 169.147 185.727 168.737 185.883 168.357C186.039 167.973 186.253 167.637 186.525 167.349C186.801 167.057 187.121 166.829 187.485 166.665C187.849 166.501 188.237 166.419 188.649 166.419C189.137 166.419 189.589 166.533 190.005 166.761C190.425 166.989 190.771 167.295 191.043 167.679L190.293 168.081C190.085 167.817 189.835 167.615 189.543 167.475C189.251 167.331 188.953 167.259 188.649 167.259C188.245 167.259 187.879 167.367 187.551 167.583C187.223 167.795 186.963 168.077 186.771 168.429C186.583 168.781 186.489 169.167 186.489 169.587C186.489 170.007 186.585 170.393 186.777 170.745C186.973 171.097 187.235 171.379 187.563 171.591C187.891 171.799 188.253 171.903 188.649 171.903C188.977 171.903 189.285 171.827 189.573 171.675C189.861 171.523 190.101 171.325 190.293 171.081ZM192.126 172.587V166.587H192.966V167.415C193.178 167.111 193.454 166.869 193.794 166.689C194.134 166.509 194.504 166.419 194.904 166.419C195.136 166.419 195.36 166.449 195.576 166.509L195.234 167.343C195.066 167.291 194.902 167.265 194.742 167.265C194.418 167.265 194.12 167.345 193.848 167.505C193.58 167.665 193.366 167.879 193.206 168.147C193.046 168.415 192.966 168.713 192.966 169.041V172.587H192.126ZM196.333 166.587H197.173V172.587H196.333V166.587ZM196.759 165.537C196.623 165.537 196.507 165.493 196.411 165.405C196.319 165.313 196.273 165.199 196.273 165.063C196.273 164.927 196.319 164.815 196.411 164.727C196.507 164.635 196.623 164.589 196.759 164.589C196.891 164.589 197.003 164.635 197.095 164.727C197.191 164.815 197.239 164.927 197.239 165.063C197.239 165.199 197.193 165.313 197.101 165.405C197.009 165.493 196.895 165.537 196.759 165.537ZM199.412 175.587H198.572V166.587H199.412V167.709C199.62 167.329 199.904 167.021 200.264 166.785C200.624 166.549 201.052 166.431 201.548 166.431C201.984 166.431 202.392 166.513 202.772 166.677C203.156 166.841 203.492 167.069 203.78 167.361C204.068 167.649 204.294 167.983 204.458 168.363C204.622 168.743 204.704 169.151 204.704 169.587C204.704 170.023 204.622 170.433 204.458 170.817C204.294 171.201 204.068 171.539 203.78 171.831C203.492 172.119 203.156 172.345 202.772 172.509C202.392 172.673 201.984 172.755 201.548 172.755C201.052 172.755 200.624 172.637 200.264 172.401C199.904 172.165 199.62 171.857 199.412 171.477V175.587ZM201.542 167.247C201.122 167.247 200.756 167.353 200.444 167.565C200.136 167.773 199.898 168.053 199.73 168.405C199.562 168.757 199.478 169.151 199.478 169.587C199.478 170.015 199.56 170.407 199.724 170.763C199.892 171.119 200.13 171.403 200.438 171.615C200.75 171.827 201.118 171.933 201.542 171.933C201.958 171.933 202.34 171.829 202.688 171.621C203.04 171.413 203.322 171.133 203.534 170.781C203.746 170.425 203.852 170.027 203.852 169.587C203.852 169.159 203.748 168.769 203.54 168.417C203.332 168.061 203.054 167.777 202.706 167.565C202.358 167.353 201.97 167.247 201.542 167.247ZM208.681 167.427H207.247L207.241 172.587H206.401L206.407 167.427H205.321V166.587H206.407L206.401 164.703H207.241L207.247 166.587H208.681V167.427ZM209.704 166.587H210.544V172.587H209.704V166.587ZM210.13 165.537C209.994 165.537 209.878 165.493 209.782 165.405C209.69 165.313 209.644 165.199 209.644 165.063C209.644 164.927 209.69 164.815 209.782 164.727C209.878 164.635 209.994 164.589 210.13 164.589C210.262 164.589 210.374 164.635 210.466 164.727C210.562 164.815 210.61 164.927 210.61 165.063C210.61 165.199 210.564 165.313 210.472 165.405C210.38 165.493 210.266 165.537 210.13 165.537ZM214.571 172.743C214.019 172.743 213.515 172.601 213.059 172.317C212.607 172.033 212.245 171.653 211.973 171.177C211.705 170.697 211.571 170.167 211.571 169.587C211.571 169.147 211.649 168.737 211.805 168.357C211.961 167.973 212.175 167.637 212.447 167.349C212.723 167.057 213.043 166.829 213.407 166.665C213.771 166.501 214.159 166.419 214.571 166.419C215.123 166.419 215.625 166.561 216.077 166.845C216.533 167.129 216.895 167.511 217.163 167.991C217.435 168.471 217.571 169.003 217.571 169.587C217.571 170.023 217.493 170.431 217.337 170.811C217.181 171.191 216.965 171.527 216.689 171.819C216.417 172.107 216.099 172.333 215.735 172.497C215.375 172.661 214.987 172.743 214.571 172.743ZM214.571 171.903C214.979 171.903 215.345 171.797 215.669 171.585C215.997 171.369 216.255 171.085 216.443 170.733C216.635 170.381 216.731 169.999 216.731 169.587C216.731 169.167 216.635 168.781 216.443 168.429C216.251 168.073 215.991 167.789 215.663 167.577C215.339 167.365 214.975 167.259 214.571 167.259C214.163 167.259 213.795 167.367 213.467 167.583C213.143 167.795 212.885 168.077 212.693 168.429C212.505 168.781 212.411 169.167 212.411 169.587C212.411 170.019 212.509 170.411 212.705 170.763C212.901 171.111 213.163 171.389 213.491 171.597C213.819 171.801 214.179 171.903 214.571 171.903ZM223.819 168.873V172.587H222.979V169.041C222.979 168.713 222.899 168.415 222.739 168.147C222.579 167.879 222.365 167.665 222.097 167.505C221.829 167.345 221.531 167.265 221.203 167.265C220.879 167.265 220.581 167.345 220.309 167.505C220.041 167.665 219.827 167.879 219.667 168.147C219.507 168.415 219.427 168.713 219.427 169.041V172.587H218.587V166.587H219.427V167.415C219.639 167.111 219.915 166.869 220.255 166.689C220.595 166.509 220.965 166.419 221.365 166.419C221.817 166.419 222.229 166.529 222.601 166.749C222.973 166.969 223.269 167.265 223.489 167.637C223.709 168.009 223.819 168.421 223.819 168.873ZM232.836 166.587H233.676V172.587H232.836L232.806 171.471C232.61 171.851 232.336 172.159 231.984 172.395C231.632 172.627 231.212 172.743 230.724 172.743C230.284 172.743 229.872 172.661 229.488 172.497C229.104 172.329 228.766 172.099 228.474 171.807C228.182 171.515 227.954 171.177 227.79 170.793C227.626 170.409 227.544 169.997 227.544 169.557C227.544 169.125 227.624 168.719 227.784 168.339C227.948 167.959 228.172 167.625 228.456 167.337C228.744 167.049 229.076 166.825 229.452 166.665C229.832 166.501 230.238 166.419 230.67 166.419C231.17 166.419 231.606 166.539 231.978 166.779C232.35 167.015 232.646 167.325 232.866 167.709L232.836 166.587ZM230.706 171.927C231.134 171.927 231.502 171.823 231.81 171.615C232.118 171.403 232.354 171.119 232.518 170.763C232.686 170.407 232.77 170.015 232.77 169.587C232.77 169.147 232.686 168.751 232.518 168.399C232.35 168.043 232.112 167.761 231.804 167.553C231.496 167.345 231.13 167.241 230.706 167.241C230.282 167.241 229.894 167.347 229.542 167.559C229.194 167.767 228.916 168.049 228.708 168.405C228.504 168.761 228.402 169.155 228.402 169.587C228.402 170.023 228.508 170.419 228.72 170.775C228.932 171.127 229.212 171.407 229.56 171.615C229.912 171.823 230.294 171.927 230.706 171.927ZM237.934 166.419C238.518 166.419 239.048 166.561 239.524 166.845C240.004 167.129 240.386 167.511 240.67 167.991C240.954 168.467 241.096 168.997 241.096 169.581C241.096 170.017 241.014 170.427 240.85 170.811C240.686 171.191 240.458 171.527 240.166 171.819C239.878 172.107 239.542 172.333 239.158 172.497C238.778 172.661 238.37 172.743 237.934 172.743C237.438 172.743 237.01 172.625 236.65 172.389C236.29 172.153 236.006 171.845 235.798 171.465V172.587H234.958V163.587H235.798V167.697C236.006 167.317 236.29 167.009 236.65 166.773C237.01 166.537 237.438 166.419 237.934 166.419ZM237.928 171.921C238.356 171.921 238.744 171.817 239.092 171.609C239.44 171.397 239.718 171.113 239.926 170.757C240.134 170.401 240.238 170.009 240.238 169.581C240.238 169.141 240.132 168.745 239.92 168.393C239.708 168.037 239.426 167.755 239.074 167.547C238.726 167.339 238.344 167.235 237.928 167.235C237.504 167.235 237.136 167.341 236.824 167.553C236.516 167.765 236.278 168.049 236.11 168.405C235.946 168.761 235.864 169.153 235.864 169.581C235.864 170.017 235.948 170.413 236.116 170.769C236.284 171.121 236.522 171.401 236.83 171.609C237.142 171.817 237.508 171.921 237.928 171.921ZM244.7 172.743C244.148 172.743 243.644 172.601 243.188 172.317C242.736 172.033 242.374 171.653 242.102 171.177C241.834 170.697 241.7 170.167 241.7 169.587C241.7 169.147 241.778 168.737 241.934 168.357C242.09 167.973 242.304 167.637 242.576 167.349C242.852 167.057 243.172 166.829 243.536 166.665C243.9 166.501 244.288 166.419 244.7 166.419C245.252 166.419 245.754 166.561 246.206 166.845C246.662 167.129 247.024 167.511 247.292 167.991C247.564 168.471 247.7 169.003 247.7 169.587C247.7 170.023 247.622 170.431 247.466 170.811C247.31 171.191 247.094 171.527 246.818 171.819C246.546 172.107 246.228 172.333 245.864 172.497C245.504 172.661 245.116 172.743 244.7 172.743ZM244.7 171.903C245.108 171.903 245.474 171.797 245.798 171.585C246.126 171.369 246.384 171.085 246.572 170.733C246.764 170.381 246.86 169.999 246.86 169.587C246.86 169.167 246.764 168.781 246.572 168.429C246.38 168.073 246.12 167.789 245.792 167.577C245.468 167.365 245.104 167.259 244.7 167.259C244.292 167.259 243.924 167.367 243.596 167.583C243.272 167.795 243.014 168.077 242.822 168.429C242.634 168.781 242.54 169.167 242.54 169.587C242.54 170.019 242.638 170.411 242.834 170.763C243.03 171.111 243.292 171.389 243.62 171.597C243.948 171.801 244.308 171.903 244.7 171.903ZM248.418 170.289V166.587H249.258V170.121C249.258 170.449 249.338 170.747 249.498 171.015C249.658 171.283 249.872 171.497 250.14 171.657C250.412 171.817 250.71 171.897 251.034 171.897C251.362 171.897 251.658 171.817 251.922 171.657C252.19 171.497 252.404 171.283 252.564 171.015C252.724 170.747 252.804 170.449 252.804 170.121V166.587H253.644L253.65 172.587H252.81L252.804 171.747C252.592 172.051 252.316 172.293 251.976 172.473C251.64 172.653 251.272 172.743 250.872 172.743C250.42 172.743 250.008 172.633 249.636 172.413C249.264 172.193 248.968 171.897 248.748 171.525C248.528 171.153 248.418 170.741 248.418 170.289ZM257.911 167.427H256.477L256.471 172.587H255.631L255.637 167.427H254.551V166.587H255.637L255.631 164.703H256.471L256.477 166.587H257.911V167.427ZM265.975 166.587H266.863L263.581 175.587H262.687L263.779 172.587L261.625 166.587H262.543L264.199 171.429L265.975 166.587ZM270.34 172.743C269.788 172.743 269.284 172.601 268.828 172.317C268.376 172.033 268.014 171.653 267.742 171.177C267.474 170.697 267.34 170.167 267.34 169.587C267.34 169.147 267.418 168.737 267.574 168.357C267.73 167.973 267.944 167.637 268.216 167.349C268.492 167.057 268.812 166.829 269.176 166.665C269.54 166.501 269.928 166.419 270.34 166.419C270.892 166.419 271.394 166.561 271.846 166.845C272.302 167.129 272.664 167.511 272.932 167.991C273.204 168.471 273.34 169.003 273.34 169.587C273.34 170.023 273.262 170.431 273.106 170.811C272.95 171.191 272.734 171.527 272.458 171.819C272.186 172.107 271.868 172.333 271.504 172.497C271.144 172.661 270.756 172.743 270.34 172.743ZM270.34 171.903C270.748 171.903 271.114 171.797 271.438 171.585C271.766 171.369 272.024 171.085 272.212 170.733C272.404 170.381 272.5 169.999 272.5 169.587C272.5 169.167 272.404 168.781 272.212 168.429C272.02 168.073 271.76 167.789 271.432 167.577C271.108 167.365 270.744 167.259 270.34 167.259C269.932 167.259 269.564 167.367 269.236 167.583C268.912 167.795 268.654 168.077 268.462 168.429C268.274 168.781 268.18 169.167 268.18 169.587C268.18 170.019 268.278 170.411 268.474 170.763C268.67 171.111 268.932 171.389 269.26 171.597C269.588 171.801 269.948 171.903 270.34 171.903ZM274.058 170.289V166.587H274.898V170.121C274.898 170.449 274.978 170.747 275.138 171.015C275.298 171.283 275.512 171.497 275.78 171.657C276.052 171.817 276.35 171.897 276.674 171.897C277.002 171.897 277.298 171.817 277.562 171.657C277.83 171.497 278.044 171.283 278.204 171.015C278.364 170.747 278.444 170.449 278.444 170.121V166.587H279.284L279.29 172.587H278.45L278.444 171.747C278.232 172.051 277.956 172.293 277.616 172.473C277.28 172.653 276.912 172.743 276.512 172.743C276.06 172.743 275.648 172.633 275.276 172.413C274.904 172.193 274.608 171.897 274.388 171.525C274.168 171.153 274.058 170.741 274.058 170.289ZM280.486 172.587V166.587H281.326V167.415C281.538 167.111 281.814 166.869 282.154 166.689C282.494 166.509 282.864 166.419 283.264 166.419C283.496 166.419 283.72 166.449 283.936 166.509L283.594 167.343C283.426 167.291 283.262 167.265 283.102 167.265C282.778 167.265 282.48 167.345 282.208 167.505C281.94 167.665 281.726 167.879 281.566 168.147C281.406 168.415 281.326 168.713 281.326 169.041V172.587H280.486ZM290.634 166.419C291.218 166.419 291.748 166.561 292.224 166.845C292.704 167.129 293.086 167.511 293.37 167.991C293.654 168.467 293.796 168.997 293.796 169.581C293.796 170.017 293.714 170.427 293.549 170.811C293.386 171.191 293.158 171.527 292.866 171.819C292.578 172.107 292.242 172.333 291.858 172.497C291.478 172.661 291.07 172.743 290.634 172.743C290.138 172.743 289.71 172.625 289.35 172.389C288.99 172.153 288.706 171.845 288.498 171.465V172.587H287.658V163.587H288.498V167.697C288.706 167.317 288.99 167.009 289.35 166.773C289.71 166.537 290.138 166.419 290.634 166.419ZM290.628 171.921C291.056 171.921 291.444 171.817 291.792 171.609C292.14 171.397 292.418 171.113 292.626 170.757C292.834 170.401 292.938 170.009 292.938 169.581C292.938 169.141 292.832 168.745 292.62 168.393C292.408 168.037 292.126 167.755 291.774 167.547C291.426 167.339 291.044 167.235 290.628 167.235C290.204 167.235 289.836 167.341 289.524 167.553C289.216 167.765 288.978 168.049 288.81 168.405C288.646 168.761 288.564 169.153 288.564 169.581C288.564 170.017 288.648 170.413 288.816 170.769C288.984 171.121 289.222 171.401 289.53 171.609C289.842 171.817 290.208 171.921 290.628 171.921ZM294.818 172.587V166.587H295.658V167.415C295.87 167.111 296.146 166.869 296.486 166.689C296.826 166.509 297.196 166.419 297.596 166.419C297.828 166.419 298.052 166.449 298.268 166.509L297.926 167.343C297.758 167.291 297.594 167.265 297.434 167.265C297.11 167.265 296.812 167.345 296.54 167.505C296.272 167.665 296.058 167.879 295.898 168.147C295.738 168.415 295.658 168.713 295.658 169.041V172.587H294.818ZM303.64 166.587H304.48V172.587H303.64L303.61 171.471C303.414 171.851 303.14 172.159 302.788 172.395C302.436 172.627 302.016 172.743 301.528 172.743C301.088 172.743 300.676 172.661 300.292 172.497C299.908 172.329 299.57 172.099 299.278 171.807C298.986 171.515 298.758 171.177 298.594 170.793C298.43 170.409 298.348 169.997 298.348 169.557C298.348 169.125 298.428 168.719 298.588 168.339C298.752 167.959 298.976 167.625 299.26 167.337C299.548 167.049 299.88 166.825 300.256 166.665C300.636 166.501 301.042 166.419 301.474 166.419C301.974 166.419 302.41 166.539 302.782 166.779C303.154 167.015 303.45 167.325 303.67 167.709L303.64 166.587ZM301.51 171.927C301.938 171.927 302.306 171.823 302.614 171.615C302.922 171.403 303.158 171.119 303.322 170.763C303.49 170.407 303.574 170.015 303.574 169.587C303.574 169.147 303.49 168.751 303.322 168.399C303.154 168.043 302.916 167.761 302.608 167.553C302.3 167.345 301.934 167.241 301.51 167.241C301.086 167.241 300.698 167.347 300.346 167.559C299.998 167.767 299.72 168.049 299.512 168.405C299.308 168.761 299.206 169.155 299.206 169.587C299.206 170.023 299.312 170.419 299.524 170.775C299.736 171.127 300.016 171.407 300.364 171.615C300.716 171.823 301.098 171.927 301.51 171.927ZM310.913 168.873V172.587H310.073V169.041C310.073 168.713 309.993 168.415 309.833 168.147C309.673 167.879 309.459 167.665 309.191 167.505C308.923 167.345 308.625 167.265 308.297 167.265C307.973 167.265 307.675 167.345 307.403 167.505C307.135 167.665 306.921 167.879 306.761 168.147C306.601 168.415 306.521 168.713 306.521 169.041V172.587H305.681V166.587H306.521V167.415C306.733 167.111 307.009 166.869 307.349 166.689C307.689 166.509 308.059 166.419 308.459 166.419C308.911 166.419 309.323 166.529 309.695 166.749C310.067 166.969 310.363 167.265 310.583 167.637C310.803 168.009 310.913 168.421 310.913 168.873ZM316.935 163.587H317.775V172.587H316.935V171.465C316.727 171.849 316.441 172.159 316.077 172.395C315.717 172.627 315.289 172.743 314.793 172.743C314.357 172.743 313.949 172.661 313.569 172.497C313.189 172.333 312.853 172.107 312.561 171.819C312.273 171.527 312.047 171.191 311.883 170.811C311.719 170.431 311.637 170.023 311.637 169.587C311.637 169.151 311.719 168.743 311.883 168.363C312.047 167.979 312.273 167.643 312.561 167.355C312.853 167.063 313.189 166.835 313.569 166.671C313.949 166.507 314.357 166.425 314.793 166.425C315.289 166.425 315.717 166.543 316.077 166.779C316.441 167.011 316.727 167.317 316.935 167.697V163.587ZM314.799 171.927C315.227 171.927 315.595 171.823 315.903 171.615C316.211 171.403 316.447 171.119 316.611 170.763C316.779 170.407 316.863 170.015 316.863 169.587C316.863 169.147 316.779 168.751 316.611 168.399C316.443 168.043 316.205 167.761 315.897 167.553C315.589 167.345 315.223 167.241 314.799 167.241C314.375 167.241 313.989 167.347 313.641 167.559C313.293 167.767 313.015 168.049 312.807 168.405C312.599 168.761 312.495 169.155 312.495 169.587C312.495 170.023 312.601 170.419 312.813 170.775C313.025 171.127 313.305 171.407 313.653 171.615C314.005 171.823 314.387 171.927 314.799 171.927ZM318.736 167.319L319.108 164.187H319.948L319.294 167.319H318.736ZM322.887 172.701C322.559 172.693 322.239 172.633 321.927 172.521C321.615 172.409 321.343 172.257 321.111 172.065C320.879 171.873 320.713 171.655 320.613 171.411L321.339 171.099C321.403 171.255 321.521 171.399 321.693 171.531C321.869 171.659 322.069 171.763 322.293 171.843C322.517 171.919 322.739 171.957 322.959 171.957C323.203 171.957 323.431 171.917 323.643 171.837C323.855 171.757 324.027 171.643 324.159 171.495C324.295 171.343 324.363 171.165 324.363 170.961C324.363 170.741 324.291 170.569 324.147 170.445C324.003 170.317 323.821 170.217 323.601 170.145C323.381 170.069 323.155 169.997 322.923 169.929C322.499 169.813 322.125 169.685 321.801 169.545C321.477 169.405 321.223 169.227 321.039 169.011C320.859 168.791 320.769 168.509 320.769 168.165C320.769 167.801 320.871 167.487 321.075 167.223C321.283 166.955 321.553 166.749 321.885 166.605C322.221 166.457 322.579 166.383 322.959 166.383C323.447 166.383 323.891 166.489 324.291 166.701C324.695 166.913 324.987 167.195 325.167 167.547L324.489 167.949C324.417 167.785 324.303 167.643 324.147 167.523C323.991 167.403 323.813 167.309 323.613 167.241C323.417 167.173 323.217 167.137 323.013 167.133C322.757 167.129 322.519 167.167 322.299 167.247C322.079 167.323 321.901 167.437 321.765 167.589C321.633 167.741 321.567 167.927 321.567 168.147C321.567 168.367 321.633 168.535 321.765 168.651C321.897 168.763 322.075 168.855 322.299 168.927C322.527 168.995 322.783 169.075 323.067 169.167C323.431 169.283 323.773 169.415 324.093 169.563C324.413 169.711 324.671 169.895 324.867 170.115C325.063 170.335 325.159 170.613 325.155 170.949C325.155 171.309 325.047 171.623 324.831 171.891C324.615 172.159 324.335 172.365 323.991 172.509C323.647 172.649 323.279 172.713 322.887 172.701ZM331.97 172.587H330.902L328.712 166.569H329.606L331.436 171.603L333.266 166.569H334.16L331.97 172.587ZM335.154 166.587H335.994V172.587H335.154V166.587ZM335.58 165.537C335.444 165.537 335.328 165.493 335.232 165.405C335.14 165.313 335.094 165.199 335.094 165.063C335.094 164.927 335.14 164.815 335.232 164.727C335.328 164.635 335.444 164.589 335.58 164.589C335.712 164.589 335.824 164.635 335.916 164.727C336.012 164.815 336.06 164.927 336.06 165.063C336.06 165.199 336.014 165.313 335.922 165.405C335.83 165.493 335.716 165.537 335.58 165.537ZM339.246 172.701C338.918 172.693 338.598 172.633 338.286 172.521C337.974 172.409 337.702 172.257 337.47 172.065C337.238 171.873 337.072 171.655 336.972 171.411L337.698 171.099C337.762 171.255 337.88 171.399 338.052 171.531C338.228 171.659 338.428 171.763 338.652 171.843C338.876 171.919 339.098 171.957 339.318 171.957C339.562 171.957 339.79 171.917 340.002 171.837C340.214 171.757 340.386 171.643 340.518 171.495C340.654 171.343 340.722 171.165 340.722 170.961C340.722 170.741 340.65 170.569 340.506 170.445C340.362 170.317 340.18 170.217 339.96 170.145C339.74 170.069 339.514 169.997 339.282 169.929C338.858 169.813 338.484 169.685 338.16 169.545C337.836 169.405 337.582 169.227 337.398 169.011C337.218 168.791 337.128 168.509 337.128 168.165C337.128 167.801 337.23 167.487 337.434 167.223C337.642 166.955 337.912 166.749 338.244 166.605C338.58 166.457 338.938 166.383 339.318 166.383C339.806 166.383 340.25 166.489 340.65 166.701C341.054 166.913 341.346 167.195 341.526 167.547L340.848 167.949C340.776 167.785 340.662 167.643 340.506 167.523C340.35 167.403 340.172 167.309 339.972 167.241C339.776 167.173 339.576 167.137 339.372 167.133C339.116 167.129 338.878 167.167 338.658 167.247C338.438 167.323 338.26 167.437 338.124 167.589C337.992 167.741 337.926 167.927 337.926 168.147C337.926 168.367 337.992 168.535 338.124 168.651C338.256 168.763 338.434 168.855 338.658 168.927C338.886 168.995 339.142 169.075 339.426 169.167C339.79 169.283 340.132 169.415 340.452 169.563C340.772 169.711 341.03 169.895 341.226 170.115C341.422 170.335 341.518 170.613 341.514 170.949C341.514 171.309 341.406 171.623 341.19 171.891C340.974 172.159 340.694 172.365 340.35 172.509C340.006 172.649 339.638 172.713 339.246 172.701ZM342.49 166.587H343.33V172.587H342.49V166.587ZM342.916 165.537C342.78 165.537 342.664 165.493 342.568 165.405C342.476 165.313 342.43 165.199 342.43 165.063C342.43 164.927 342.476 164.815 342.568 164.727C342.664 164.635 342.78 164.589 342.916 164.589C343.048 164.589 343.16 164.635 343.252 164.727C343.348 164.815 343.396 164.927 343.396 165.063C343.396 165.199 343.35 165.313 343.258 165.405C343.166 165.493 343.052 165.537 342.916 165.537ZM347.356 172.743C346.804 172.743 346.3 172.601 345.844 172.317C345.392 172.033 345.03 171.653 344.758 171.177C344.49 170.697 344.356 170.167 344.356 169.587C344.356 169.147 344.434 168.737 344.59 168.357C344.746 167.973 344.96 167.637 345.232 167.349C345.508 167.057 345.828 166.829 346.192 166.665C346.556 166.501 346.944 166.419 347.356 166.419C347.908 166.419 348.41 166.561 348.862 166.845C349.318 167.129 349.68 167.511 349.948 167.991C350.22 168.471 350.356 169.003 350.356 169.587C350.356 170.023 350.278 170.431 350.122 170.811C349.966 171.191 349.75 171.527 349.474 171.819C349.202 172.107 348.884 172.333 348.52 172.497C348.16 172.661 347.772 172.743 347.356 172.743ZM347.356 171.903C347.764 171.903 348.13 171.797 348.454 171.585C348.782 171.369 349.04 171.085 349.228 170.733C349.42 170.381 349.516 169.999 349.516 169.587C349.516 169.167 349.42 168.781 349.228 168.429C349.036 168.073 348.776 167.789 348.448 167.577C348.124 167.365 347.76 167.259 347.356 167.259C346.948 167.259 346.58 167.367 346.252 167.583C345.928 167.795 345.67 168.077 345.478 168.429C345.29 168.781 345.196 169.167 345.196 169.587C345.196 170.019 345.294 170.411 345.49 170.763C345.686 171.111 345.948 171.389 346.276 171.597C346.604 171.801 346.964 171.903 347.356 171.903ZM356.604 168.873V172.587H355.764V169.041C355.764 168.713 355.684 168.415 355.524 168.147C355.364 167.879 355.15 167.665 354.882 167.505C354.614 167.345 354.316 167.265 353.988 167.265C353.664 167.265 353.366 167.345 353.094 167.505C352.826 167.665 352.612 167.879 352.452 168.147C352.292 168.415 352.212 168.713 352.212 169.041V172.587H351.372V166.587H352.212V167.415C352.424 167.111 352.7 166.869 353.04 166.689C353.38 166.509 353.75 166.419 354.15 166.419C354.602 166.419 355.014 166.529 355.386 166.749C355.758 166.969 356.054 167.265 356.274 167.637C356.494 168.009 356.604 168.421 356.604 168.873Z" fill="#747474"/>
<path d="M216.143 203.587C216.143 196.959 221.515 191.587 228.143 191.587H265.857C272.484 191.587 277.857 196.959 277.857 203.587C277.857 210.214 272.484 215.587 265.857 215.587H228.143C221.515 215.587 216.143 210.214 216.143 203.587Z" fill="#0062E9"/>
<path d="M229.395 206.116C229.019 206.116 228.67 206.044 228.346 205.9C228.024 205.753 227.743 205.551 227.501 205.294C227.262 205.035 227.074 204.735 226.938 204.396C226.804 204.056 226.737 203.695 226.737 203.312C226.737 202.908 226.809 202.536 226.953 202.197C227.097 201.858 227.294 201.563 227.543 201.314C227.793 201.062 228.077 200.866 228.396 200.727C228.717 200.589 229.054 200.519 229.406 200.519C229.805 200.519 230.188 200.612 230.556 200.797C230.924 200.982 231.244 201.26 231.516 201.63L230.799 202.02C230.614 201.788 230.398 201.613 230.151 201.495C229.907 201.377 229.656 201.318 229.399 201.318C229.149 201.318 228.913 201.369 228.689 201.472C228.465 201.572 228.267 201.714 228.095 201.896C227.923 202.076 227.786 202.288 227.686 202.533C227.588 202.774 227.54 203.038 227.54 203.323C227.54 203.598 227.587 203.857 227.682 204.099C227.78 204.34 227.914 204.552 228.083 204.735C228.256 204.915 228.454 205.056 228.677 205.159C228.904 205.262 229.145 205.314 229.403 205.314C229.593 205.314 229.775 205.283 229.95 205.221C230.125 205.159 230.287 205.072 230.436 204.959C230.588 204.843 230.72 204.705 230.834 204.546C230.947 204.387 231.037 204.209 231.104 204.014H229.958V203.304H232.045C232.05 203.69 231.983 204.052 231.844 204.392C231.708 204.731 231.518 205.031 231.273 205.29C231.032 205.548 230.75 205.749 230.429 205.896C230.107 206.043 229.763 206.116 229.395 206.116ZM234.412 206.116C234.057 206.116 233.733 206.025 233.44 205.842C233.15 205.659 232.917 205.415 232.742 205.109C232.57 204.801 232.484 204.46 232.484 204.087C232.484 203.804 232.534 203.541 232.634 203.296C232.734 203.049 232.872 202.833 233.047 202.648C233.224 202.461 233.43 202.314 233.664 202.209C233.898 202.103 234.147 202.05 234.412 202.05C234.708 202.05 234.979 202.112 235.226 202.236C235.473 202.356 235.684 202.525 235.859 202.741C236.033 202.954 236.162 203.201 236.244 203.481C236.327 203.759 236.351 204.055 236.318 204.369H233.344C233.377 204.546 233.441 204.707 233.537 204.851C233.634 204.992 233.758 205.104 233.907 205.186C234.059 205.269 234.227 205.311 234.412 205.314C234.608 205.314 234.785 205.265 234.944 205.167C235.106 205.069 235.239 204.934 235.342 204.762L236.156 204.951C236.001 205.293 235.769 205.573 235.457 205.792C235.146 206.008 234.798 206.116 234.412 206.116ZM233.317 203.755H235.508C235.482 203.57 235.416 203.403 235.311 203.254C235.208 203.102 235.078 202.983 234.921 202.895C234.767 202.805 234.597 202.76 234.412 202.76C234.23 202.76 234.06 202.804 233.903 202.891C233.749 202.979 233.62 203.098 233.517 203.25C233.417 203.399 233.35 203.568 233.317 203.755ZM238.97 202.961H238.16L238.156 206.016H237.354L237.358 202.961H236.745V202.158H237.358L237.354 200.947H238.156L238.16 202.158H238.97V202.961ZM243.439 206.116C243.143 206.116 242.859 206.07 242.586 205.977C242.314 205.884 242.076 205.752 241.873 205.58C241.67 205.405 241.524 205.198 241.437 204.959L242.189 204.677C242.233 204.801 242.316 204.911 242.44 205.009C242.566 205.104 242.715 205.179 242.887 205.233C243.062 205.287 243.246 205.314 243.439 205.314C243.644 205.314 243.837 205.28 244.017 205.213C244.2 205.146 244.346 205.054 244.457 204.936C244.57 204.817 244.627 204.678 244.627 204.519C244.627 204.354 244.568 204.219 244.449 204.114C244.334 204.009 244.184 203.925 244.002 203.863C243.822 203.802 243.634 203.755 243.439 203.724C243.061 203.663 242.721 203.573 242.42 203.454C242.122 203.336 241.886 203.17 241.711 202.957C241.538 202.743 241.452 202.466 241.452 202.124C241.452 201.802 241.544 201.522 241.726 201.283C241.911 201.044 242.154 200.859 242.455 200.727C242.759 200.594 243.086 200.527 243.439 200.527C243.729 200.527 244.01 200.573 244.28 200.666C244.552 200.756 244.791 200.888 244.997 201.063C245.205 201.235 245.354 201.445 245.444 201.692L244.685 201.966C244.641 201.84 244.557 201.73 244.434 201.638C244.31 201.543 244.161 201.468 243.986 201.414C243.814 201.36 243.632 201.333 243.439 201.333C243.233 201.33 243.04 201.364 242.86 201.433C242.683 201.5 242.537 201.593 242.424 201.711C242.311 201.829 242.255 201.967 242.255 202.124C242.255 202.317 242.307 202.463 242.413 202.563C242.518 202.664 242.66 202.738 242.837 202.787C243.017 202.833 243.218 202.876 243.439 202.914C243.794 202.971 244.121 203.065 244.422 203.196C244.726 203.327 244.969 203.502 245.151 203.721C245.336 203.937 245.429 204.203 245.429 204.519C245.429 204.838 245.336 205.118 245.151 205.36C244.969 205.599 244.726 205.785 244.422 205.919C244.121 206.05 243.794 206.116 243.439 206.116ZM248.259 202.961H247.449L247.445 206.016H246.643L246.647 202.961H246.033V202.158H246.647L246.643 200.947H247.445L247.449 202.158H248.259V202.961ZM251.86 202.158H252.662V206.016H251.856L251.825 205.456C251.712 205.654 251.559 205.814 251.366 205.935C251.173 206.055 250.946 206.116 250.684 206.116C250.401 206.116 250.135 206.063 249.885 205.958C249.636 205.85 249.416 205.701 249.226 205.51C249.038 205.32 248.891 205.101 248.786 204.855C248.68 204.605 248.628 204.338 248.628 204.052C248.628 203.777 248.679 203.519 248.782 203.277C248.885 203.033 249.028 202.819 249.21 202.637C249.393 202.454 249.604 202.311 249.843 202.209C250.084 202.103 250.343 202.05 250.618 202.05C250.898 202.05 251.145 202.115 251.359 202.243C251.575 202.369 251.753 202.531 251.895 202.729L251.86 202.158ZM250.664 205.341C250.891 205.341 251.089 205.285 251.258 205.175C251.428 205.062 251.559 204.91 251.652 204.72C251.747 204.529 251.794 204.318 251.794 204.087C251.794 203.853 251.747 203.641 251.652 203.451C251.557 203.26 251.424 203.11 251.254 202.999C251.087 202.886 250.891 202.83 250.664 202.83C250.441 202.83 250.236 202.886 250.051 202.999C249.866 203.112 249.719 203.264 249.611 203.454C249.503 203.645 249.449 203.856 249.449 204.087C249.449 204.321 249.505 204.533 249.615 204.723C249.728 204.911 249.876 205.062 250.059 205.175C250.244 205.285 250.446 205.341 250.664 205.341ZM253.432 206.016V202.158H254.234V202.567C254.368 202.408 254.533 202.282 254.728 202.189C254.923 202.097 255.134 202.05 255.361 202.05C255.505 202.05 255.647 202.07 255.789 202.108L255.469 202.918C255.368 202.88 255.268 202.86 255.168 202.86C254.998 202.86 254.842 202.903 254.701 202.988C254.56 203.07 254.446 203.182 254.362 203.323C254.277 203.465 254.234 203.622 254.234 203.794V206.016H253.432ZM258.369 202.961H257.559L257.555 206.016H256.753L256.757 202.961H256.143V202.158H256.757L256.753 200.947H257.555L257.559 202.158H258.369V202.961ZM260.666 206.116C260.311 206.116 259.987 206.025 259.694 205.842C259.404 205.659 259.171 205.415 258.996 205.109C258.824 204.801 258.738 204.46 258.738 204.087C258.738 203.804 258.788 203.541 258.888 203.296C258.988 203.049 259.126 202.833 259.301 202.648C259.478 202.461 259.684 202.314 259.918 202.209C260.152 202.103 260.401 202.05 260.666 202.05C260.962 202.05 261.233 202.112 261.48 202.236C261.727 202.356 261.938 202.525 262.113 202.741C262.288 202.954 262.416 203.201 262.498 203.481C262.581 203.759 262.605 204.055 262.572 204.369H259.598C259.631 204.546 259.696 204.707 259.791 204.851C259.888 204.992 260.012 205.104 260.161 205.186C260.313 205.269 260.481 205.311 260.666 205.314C260.862 205.314 261.039 205.265 261.199 205.167C261.361 205.069 261.493 204.934 261.596 204.762L262.41 204.951C262.255 205.293 262.023 205.573 261.712 205.792C261.4 206.008 261.052 206.116 260.666 206.116ZM259.571 203.755H261.762C261.736 203.57 261.67 203.403 261.565 203.254C261.462 203.102 261.332 202.983 261.175 202.895C261.021 202.805 260.851 202.76 260.666 202.76C260.484 202.76 260.314 202.804 260.157 202.891C260.003 202.979 259.874 203.098 259.771 203.25C259.671 203.399 259.604 203.568 259.571 203.755ZM266.208 200.23H267.01V206.016H266.208V205.449C266.082 205.649 265.917 205.811 265.714 205.935C265.511 206.055 265.273 206.116 265 206.116C264.72 206.116 264.458 206.063 264.214 205.958C263.969 205.852 263.753 205.707 263.566 205.522C263.38 205.334 263.235 205.118 263.13 204.874C263.024 204.63 262.972 204.367 262.972 204.087C262.972 203.807 263.024 203.544 263.13 203.3C263.235 203.053 263.38 202.837 263.566 202.652C263.753 202.464 263.969 202.318 264.214 202.212C264.458 202.107 264.72 202.054 265 202.054C265.273 202.054 265.511 202.116 265.714 202.239C265.917 202.36 266.082 202.52 266.208 202.718V200.23ZM265.008 205.341C265.234 205.341 265.432 205.285 265.602 205.175C265.772 205.062 265.903 204.91 265.996 204.72C266.091 204.529 266.138 204.318 266.138 204.087C266.138 203.853 266.091 203.641 265.996 203.451C265.9 203.26 265.768 203.11 265.598 202.999C265.431 202.886 265.234 202.83 265.008 202.83C264.784 202.83 264.58 202.886 264.395 202.999C264.212 203.112 264.066 203.264 263.955 203.454C263.847 203.645 263.793 203.856 263.793 204.087C263.793 204.321 263.848 204.533 263.959 204.723C264.072 204.911 264.22 205.062 264.403 205.175C264.588 205.285 264.79 205.341 265.008 205.341Z" fill="white"/>
</g>
<g filter="url(#filter1_di_7936_3260)">
<rect x="425.347" y="14" width="48" height="48" rx="8" transform="rotate(19.9102 425.347 14)" fill="white" fill-opacity="0.25" shape-rendering="crispEdges"/>
<rect x="425.721" y="14.8005" width="46.75" height="46.75" rx="7.375" transform="rotate(19.9102 425.721 14.8005)" stroke="white" stroke-width="1.25" shape-rendering="crispEdges"/>
<path fill-rule="evenodd" clip-rule="evenodd" d="M437.482 54.2929L436.829 52.847C436.596 52.331 436.204 51.9009 435.708 51.6187C435.211 51.3364 434.636 51.2162 434.066 51.2752L432.47 51.4427C431.995 51.4919 431.515 51.4044 431.089 51.1907C430.663 50.977 430.31 50.6464 430.071 50.2388C429.831 49.8312 429.718 49.364 429.743 48.8938C429.768 48.4237 429.931 47.9708 430.212 47.5902L431.157 46.3105C431.494 45.8538 431.676 45.3035 431.676 44.7388C431.676 44.174 431.494 43.6238 431.157 43.167L430.212 41.8873C429.931 41.5067 429.768 41.0538 429.743 40.5837C429.718 40.1136 429.831 39.6464 430.071 39.2388C430.309 38.8309 430.663 38.5001 431.089 38.2864C431.515 38.0727 431.995 37.9854 432.47 38.0349L434.071 38.2023C434.641 38.2613 435.216 38.1411 435.713 37.8589C436.207 37.5758 436.598 37.1459 436.829 36.6305L437.482 35.1847C437.675 34.7543 437.992 34.3886 438.393 34.1319C438.794 33.8753 439.261 33.7387 439.739 33.7388C440.217 33.7387 440.685 33.8753 441.086 34.1319C441.486 34.3886 441.803 34.7543 441.997 35.1847L442.654 36.6305C442.886 37.1459 443.277 37.5758 443.771 37.8589C444.268 38.1411 444.842 38.2613 445.412 38.2023L447.009 38.0349C447.484 37.9854 447.964 38.0727 448.389 38.2864C448.815 38.5001 449.169 38.8309 449.408 39.2388C449.647 39.6464 449.761 40.1136 449.736 40.5837C449.711 41.0538 449.548 41.5067 449.266 41.8873L448.321 43.167C447.984 43.6238 447.803 44.174 447.803 44.7388C447.8 45.3051 447.98 45.8576 448.316 46.3167L449.262 47.5963C449.543 47.977 449.706 48.4298 449.731 48.8999C449.756 49.3701 449.642 49.8373 449.403 50.2449C449.164 50.6527 448.81 50.9835 448.384 51.1972C447.959 51.4109 447.479 51.4983 447.004 51.4488L445.407 51.2813C444.837 51.2223 444.263 51.3425 443.766 51.6248C443.273 51.9062 442.882 52.3339 442.65 52.847L441.997 54.2929C441.803 54.7233 441.486 55.089 441.086 55.3456C440.685 55.6023 440.217 55.7388 439.739 55.7388C439.261 55.7388 438.794 55.6023 438.393 55.3456C437.992 55.089 437.675 54.7233 437.482 54.2929ZM442.739 44.7388C442.739 46.3956 441.396 47.7388 439.739 47.7388C438.082 47.7388 436.739 46.3956 436.739 44.7388C436.739 43.0819 438.082 41.7388 439.739 41.7388C441.396 41.7388 442.739 43.0819 442.739 44.7388Z" fill="url(#paint0_linear_7936_3260)"/>
</g>
<g filter="url(#filter2_di_7936_3260)">
<rect x="15.9775" y="91.3945" width="48" height="48" rx="8" transform="rotate(-20 15.9775 91.3945)" fill="white" fill-opacity="0.25" shape-rendering="crispEdges"/>
<rect x="16.7786" y="91.7681" width="46.75" height="46.75" rx="7.375" transform="rotate(-20 16.7786 91.7681)" stroke="white" stroke-width="1.25" shape-rendering="crispEdges"/>
<path fill-rule="evenodd" clip-rule="evenodd" d="M52.5768 95.7388H40.8997C40.3726 95.7388 39.9178 95.7387 39.5433 95.7693C39.1479 95.8016 38.7547 95.873 38.3763 96.0658C37.8118 96.3534 37.3529 96.8123 37.0653 97.3768C36.8725 97.7552 36.8012 98.1484 36.7689 98.5437C36.7383 98.9183 36.7383 99.3731 36.7383 99.9002V111.577C36.7383 112.104 36.7383 112.559 36.7689 112.934C36.8012 113.329 36.8725 113.722 37.0653 114.101C37.3529 114.665 37.8118 115.124 38.3763 115.412C38.7547 115.605 39.1479 115.676 39.5433 115.708C39.9178 115.739 40.3726 115.739 40.8997 115.739H52.5769C53.104 115.739 53.5587 115.739 53.9333 115.708C54.3287 115.676 54.7219 115.605 55.1003 115.412C55.6647 115.124 56.1237 114.665 56.4113 114.101C56.6041 113.722 56.6754 113.329 56.7077 112.934C56.7383 112.559 56.7383 112.104 56.7383 111.577V99.9002C56.7383 99.3731 56.7383 98.9183 56.7077 98.5437C56.6754 98.1484 56.6041 97.7552 56.4113 97.3768C56.1237 96.8123 55.6647 96.3534 55.1003 96.0658C54.7219 95.873 54.3287 95.8016 53.9333 95.7693C53.5587 95.7387 53.104 95.7388 52.5768 95.7388ZM45.4454 101.446C45.8359 101.055 45.8359 100.422 45.4454 100.032C45.0549 99.6411 44.4217 99.6411 44.0312 100.032L41.0312 103.032C40.6407 103.422 40.6407 104.055 41.0312 104.446L44.0312 107.446C44.4217 107.836 45.0549 107.836 45.4454 107.446C45.8359 107.055 45.8359 106.422 45.4454 106.032L43.1525 103.739L45.4454 101.446ZM49.4454 104.032C49.0549 103.641 48.4217 103.641 48.0312 104.032C47.6407 104.422 47.6407 105.055 48.0312 105.446L50.3241 107.739L48.0312 110.032C47.6407 110.422 47.6407 111.055 48.0312 111.446C48.4217 111.836 49.0549 111.836 49.4454 111.446L52.4454 108.446C52.8359 108.055 52.8359 107.422 52.4454 107.032L49.4454 104.032Z" fill="url(#paint1_linear_7936_3260)"/>
</g>
<g filter="url(#filter3_di_7936_3260)">
<rect x="169.472" y="251.123" width="48" height="48" rx="8" transform="rotate(4 169.472 251.123)" fill="white" fill-opacity="0.25" shape-rendering="crispEdges"/>
<rect x="170.052" y="251.79" width="46.75" height="46.75" rx="7.375" transform="rotate(4 170.052 251.79)" stroke="white" stroke-width="1.25" shape-rendering="crispEdges"/>
<path fill-rule="evenodd" clip-rule="evenodd" d="M192.807 270.547C192.913 270.005 193.438 269.652 193.98 269.757C195.152 269.986 196.23 270.559 197.074 271.404C197.919 272.248 198.492 273.325 198.72 274.497C198.826 275.039 198.472 275.565 197.93 275.67C197.388 275.776 196.863 275.422 196.757 274.88C196.605 274.099 196.223 273.381 195.66 272.818C195.097 272.255 194.379 271.873 193.597 271.72C193.055 271.615 192.702 271.089 192.807 270.547Z" fill="url(#paint2_linear_7936_3260)"/>
<path fill-rule="evenodd" clip-rule="evenodd" d="M192.795 266.628C192.856 266.08 193.35 265.684 193.899 265.745C196.154 265.995 198.257 267.005 199.862 268.608C201.467 270.211 202.479 272.313 202.733 274.567C202.794 275.116 202.399 275.611 201.851 275.673C201.302 275.734 200.807 275.339 200.745 274.791C200.543 272.987 199.733 271.306 198.448 270.023C197.164 268.741 195.482 267.933 193.679 267.733C193.13 267.672 192.734 267.177 192.795 266.628Z" fill="url(#paint3_linear_7936_3260)"/>
<path fill-rule="evenodd" clip-rule="evenodd" d="M186.077 282.491C183.643 280.057 181.873 277.026 180.932 273.717C180.785 273.198 180.671 272.795 180.669 272.244C180.667 271.613 180.873 270.823 181.182 270.273C181.713 269.327 182.854 268.115 183.839 267.616C184.69 267.186 185.696 267.186 186.547 267.616C187.383 268.039 188.341 269.017 188.85 269.8C189.497 270.795 189.497 272.076 188.85 273.071C188.677 273.337 188.43 273.584 188.143 273.87C188.054 273.959 187.956 274.023 188.021 274.159C188.669 275.509 189.552 276.774 190.673 277.895C191.794 279.016 193.059 279.899 194.409 280.547C194.548 280.614 194.606 280.517 194.698 280.425C194.984 280.138 195.231 279.891 195.497 279.718C196.491 279.071 197.773 279.071 198.768 279.718C199.55 280.227 200.529 281.185 200.951 282.021C201.382 282.872 201.382 283.878 200.951 284.729C200.457 285.707 199.255 286.847 198.295 287.386C197.745 287.695 196.955 287.901 196.324 287.899C195.772 287.897 195.37 287.783 194.851 287.635C191.542 286.695 188.511 284.925 186.077 282.491Z" fill="url(#paint4_linear_7936_3260)"/>
</g>
<defs>
<filter id="filter0_di_7936_3260" x="-13" y="-27.4131" width="520" height="370" filterUnits="userSpaceOnUse" color-interpolation-filters="sRGB">
<feFlood flood-opacity="0" result="BackgroundImageFix"/>
<feColorMatrix in="SourceAlpha" type="matrix" values="0 0 0 0 0 0 0 0 0 0 0 0 0 0 0 0 0 0 127 0" result="hardAlpha"/>
<feOffset dy="2"/>
<feGaussianBlur stdDeviation="9"/>
<feComposite in2="hardAlpha" operator="out"/>
<feColorMatrix type="matrix" values="0 0 0 0 0.00784314 0 0 0 0 0.227451 0 0 0 0 0.517647 0 0 0 0.05 0"/>
<feBlend mode="multiply" in2="BackgroundImageFix" result="effect1_dropShadow_7936_3260"/>
<feBlend mode="normal" in="SourceGraphic" in2="effect1_dropShadow_7936_3260" result="shape"/>
<feColorMatrix in="SourceAlpha" type="matrix" values="0 0 0 0 0 0 0 0 0 0 0 0 0 0 0 0 0 0 127 0" result="hardAlpha"/>
<feOffset dy="2"/>
<feGaussianBlur stdDeviation="8"/>
<feComposite in2="hardAlpha" operator="arithmetic" k2="-1" k3="1"/>
<feColorMatrix type="matrix" values="0 0 0 0 1 0 0 0 0 1 0 0 0 0 1 0 0 0 0.8 0"/>
<feBlend mode="normal" in2="shape" result="effect2_innerShadow_7936_3260"/>
</filter>
<filter id="filter1_di_7936_3260" x="349" y="-46" width="181.478" height="181.477" filterUnits="userSpaceOnUse" color-interpolation-filters="sRGB">
<feFlood flood-opacity="0" result="BackgroundImageFix"/>
<feColorMatrix in="SourceAlpha" type="matrix" values="0 0 0 0 0 0 0 0 0 0 0 0 0 0 0 0 0 0 127 0" result="hardAlpha"/>
<feOffset dy="2"/>
<feGaussianBlur stdDeviation="9"/>
<feComposite in2="hardAlpha" operator="out"/>
<feColorMatrix type="matrix" values="0 0 0 0 0.00784314 0 0 0 0 0.227451 0 0 0 0 0.517647 0 0 0 0.05 0"/>
<feBlend mode="multiply" in2="BackgroundImageFix" result="effect1_dropShadow_7936_3260"/>
<feBlend mode="normal" in="SourceGraphic" in2="effect1_dropShadow_7936_3260" result="shape"/>
<feColorMatrix in="SourceAlpha" type="matrix" values="0 0 0 0 0 0 0 0 0 0 0 0 0 0 0 0 0 0 127 0" result="hardAlpha"/>
<feOffset dy="2"/>
<feGaussianBlur stdDeviation="8"/>
<feComposite in2="hardAlpha" operator="arithmetic" k2="-1" k3="1"/>
<feColorMatrix type="matrix" values="0 0 0 0 1 0 0 0 0 1 0 0 0 0 1 0 0 0 0.8 0"/>
<feBlend mode="normal" in2="shape" result="effect2_innerShadow_7936_3260"/>
</filter>
<filter id="filter2_di_7936_3260" x="-44.0225" y="14.9775" width="181.522" height="181.522" filterUnits="userSpaceOnUse" color-interpolation-filters="sRGB">
<feFlood flood-opacity="0" result="BackgroundImageFix"/>
<feColorMatrix in="SourceAlpha" type="matrix" values="0 0 0 0 0 0 0 0 0 0 0 0 0 0 0 0 0 0 127 0" result="hardAlpha"/>
<feOffset dy="2"/>
<feGaussianBlur stdDeviation="9"/>
<feComposite in2="hardAlpha" operator="out"/>
<feColorMatrix type="matrix" values="0 0 0 0 0.00784314 0 0 0 0 0.227451 0 0 0 0 0.517647 0 0 0 0.05 0"/>
<feBlend mode="multiply" in2="BackgroundImageFix" result="effect1_dropShadow_7936_3260"/>
<feBlend mode="normal" in="SourceGraphic" in2="effect1_dropShadow_7936_3260" result="shape"/>
<feColorMatrix in="SourceAlpha" type="matrix" values="0 0 0 0 0 0 0 0 0 0 0 0 0 0 0 0 0 0 127 0" result="hardAlpha"/>
<feOffset dy="2"/>
<feGaussianBlur stdDeviation="8"/>
<feComposite in2="hardAlpha" operator="arithmetic" k2="-1" k3="1"/>
<feColorMatrix type="matrix" values="0 0 0 0 1 0 0 0 0 1 0 0 0 0 1 0 0 0 0.8 0"/>
<feBlend mode="normal" in2="shape" result="effect2_innerShadow_7936_3260"/>
</filter>
<filter id="filter3_di_7936_3260" x="106.123" y="191.123" width="171.231" height="171.231" filterUnits="userSpaceOnUse" color-interpolation-filters="sRGB">
<feFlood flood-opacity="0" result="BackgroundImageFix"/>
<feColorMatrix in="SourceAlpha" type="matrix" values="0 0 0 0 0 0 0 0 0 0 0 0 0 0 0 0 0 0 127 0" result="hardAlpha"/>
<feOffset dy="2"/>
<feGaussianBlur stdDeviation="9"/>
<feComposite in2="hardAlpha" operator="out"/>
<feColorMatrix type="matrix" values="0 0 0 0 0.00784314 0 0 0 0 0.227451 0 0 0 0 0.517647 0 0 0 0.05 0"/>
<feBlend mode="multiply" in2="BackgroundImageFix" result="effect1_dropShadow_7936_3260"/>
<feBlend mode="normal" in="SourceGraphic" in2="effect1_dropShadow_7936_3260" result="shape"/>
<feColorMatrix in="SourceAlpha" type="matrix" values="0 0 0 0 0 0 0 0 0 0 0 0 0 0 0 0 0 0 127 0" result="hardAlpha"/>
<feOffset dy="2"/>
<feGaussianBlur stdDeviation="8"/>
<feComposite in2="hardAlpha" operator="arithmetic" k2="-1" k3="1"/>
<feColorMatrix type="matrix" values="0 0 0 0 1 0 0 0 0 1 0 0 0 0 1 0 0 0 0.8 0"/>
<feBlend mode="normal" in2="shape" result="effect2_innerShadow_7936_3260"/>
</filter>
<linearGradient id="paint0_linear_7936_3260" x1="439.739" y1="33.7388" x2="439.739" y2="55.7388" gradientUnits="userSpaceOnUse">
<stop stop-color="#1483F3"/>
<stop offset="1" stop-color="#4BB3F9"/>
</linearGradient>
<linearGradient id="paint1_linear_7936_3260" x1="46.7383" y1="95.7388" x2="46.7383" y2="115.739" gradientUnits="userSpaceOnUse">
<stop stop-color="#1483F3"/>
<stop offset="1" stop-color="#4BB3F9"/>
</linearGradient>
<linearGradient id="paint2_linear_7936_3260" x1="191.704" y1="265.739" x2="191.704" y2="287.899" gradientUnits="userSpaceOnUse">
<stop stop-color="#1483F3"/>
<stop offset="1" stop-color="#4BB3F9"/>
</linearGradient>
<linearGradient id="paint3_linear_7936_3260" x1="191.704" y1="265.739" x2="191.704" y2="287.899" gradientUnits="userSpaceOnUse">
<stop stop-color="#1483F3"/>
<stop offset="1" stop-color="#4BB3F9"/>
</linearGradient>
<linearGradient id="paint4_linear_7936_3260" x1="191.704" y1="265.739" x2="191.704" y2="287.899" gradientUnits="userSpaceOnUse">
<stop stop-color="#1483F3"/>
<stop offset="1" stop-color="#4BB3F9"/>
</linearGradient>
</defs>
</svg>
