<svg width="90" height="91" viewBox="0 0 90 91" fill="none" xmlns="http://www.w3.org/2000/svg">
<g filter="url(#filter0_di_7930_2547)">
<rect x="26.5146" y="15.3735" width="48" height="48" rx="8" transform="rotate(12 26.5146 15.3735)" fill="white" fill-opacity="0.25" shape-rendering="crispEdges"/>
<rect x="26.996" y="16.1148" width="46.75" height="46.75" rx="7.375" transform="rotate(12 26.996 16.1148)" stroke="white" stroke-width="1.25" shape-rendering="crispEdges"/>
<path d="M50.8385 53.8389L39.1615 53.8389C38.6343 53.8389 38.1795 53.8389 37.805 53.8083C37.4096 53.776 37.0164 53.7047 36.638 53.5119C36.0735 53.2243 35.6146 52.7653 35.327 52.2008C35.2245 51.9997 35.1564 51.7944 35.1101 51.5868C35.085 51.4741 35.0725 51.4177 35.0787 51.3421C35.0837 51.2821 35.1065 51.2037 35.1345 51.1505C35.1698 51.0833 35.2201 51.033 35.3206 50.9325L41 45.2531L42.7436 46.9967C42.8278 47.0809 42.9283 47.1816 43.0242 47.2629C43.1352 47.3572 43.3038 47.4828 43.5365 47.5583C43.8377 47.6562 44.1623 47.6562 44.4635 47.5583C44.6962 47.4828 44.8648 47.3572 44.9758 47.2629C45.0717 47.1816 45.1722 47.0809 45.2564 46.9967L49 43.2531L49 44.8389C49 45.3912 49.4477 45.8389 50 45.8389C50.5523 45.8389 51 45.3912 51 44.8389L51 40.8389C51 40.2866 50.5523 39.8389 50 39.8389L46 39.8389C45.4477 39.8389 45 40.2866 45 40.8389C45 41.3912 45.4477 41.8389 46 41.8389L47.5858 41.8389L44 45.4247L42.2564 43.6811C42.1722 43.5968 42.0717 43.4962 41.9758 43.4148C41.8648 43.3205 41.6962 43.195 41.4635 43.1194C41.1623 43.0215 40.8377 43.0215 40.5365 43.1194C40.3038 43.195 40.1352 43.3205 40.0242 43.4148C39.9283 43.4962 39.8278 43.5968 39.7436 43.681L36.3657 47.059C35.9373 47.4873 35.7231 47.7015 35.5392 47.716C35.3797 47.7286 35.2237 47.664 35.1198 47.5423C35 47.402 35 47.0991 35 46.4933L35 38.0003C35 37.4732 35 37.0184 35.0306 36.6438C35.0629 36.2485 35.1342 35.8553 35.327 35.4769C35.6146 34.9124 36.0735 34.4535 36.638 34.1658C37.0164 33.9731 37.4096 33.9017 37.805 33.8694C38.1795 33.8388 38.6343 33.8388 39.1614 33.8389L50.8386 33.8389C51.3657 33.8388 51.8205 33.8388 52.195 33.8694C52.5904 33.9017 52.9836 33.9731 53.362 34.1658C53.9265 34.4535 54.3854 34.9124 54.673 35.4769C54.8658 35.8553 54.9371 36.2485 54.9694 36.6438C55 37.0184 55 37.4732 55 38.0003L55 49.6774C55 50.2046 55 50.6593 54.9694 51.0339C54.9371 51.4292 54.8658 51.8225 54.673 52.2008C54.3854 52.7653 53.9265 53.2243 53.362 53.5119C52.9836 53.7047 52.5904 53.776 52.195 53.8083C51.8205 53.8389 51.3657 53.8389 50.8385 53.8389Z" fill="url(#paint0_linear_7930_2547)"/>
</g>
<defs>
<filter id="filter0_di_7930_2547" x="-43.4648" y="-44.6265" width="176.931" height="176.931" filterUnits="userSpaceOnUse" color-interpolation-filters="sRGB">
<feFlood flood-opacity="0" result="BackgroundImageFix"/>
<feColorMatrix in="SourceAlpha" type="matrix" values="0 0 0 0 0 0 0 0 0 0 0 0 0 0 0 0 0 0 127 0" result="hardAlpha"/>
<feOffset dy="2"/>
<feGaussianBlur stdDeviation="9"/>
<feComposite in2="hardAlpha" operator="out"/>
<feColorMatrix type="matrix" values="0 0 0 0 0.00784314 0 0 0 0 0.227451 0 0 0 0 0.517647 0 0 0 0.05 0"/>
<feBlend mode="multiply" in2="BackgroundImageFix" result="effect1_dropShadow_7930_2547"/>
<feBlend mode="normal" in="SourceGraphic" in2="effect1_dropShadow_7930_2547" result="shape"/>
<feColorMatrix in="SourceAlpha" type="matrix" values="0 0 0 0 0 0 0 0 0 0 0 0 0 0 0 0 0 0 127 0" result="hardAlpha"/>
<feOffset dy="2"/>
<feGaussianBlur stdDeviation="8"/>
<feComposite in2="hardAlpha" operator="arithmetic" k2="-1" k3="1"/>
<feColorMatrix type="matrix" values="0 0 0 0 1 0 0 0 0 1 0 0 0 0 1 0 0 0 0.8 0"/>
<feBlend mode="normal" in2="shape" result="effect2_innerShadow_7930_2547"/>
</filter>
<linearGradient id="paint0_linear_7930_2547" x1="45" y1="33.8389" x2="45" y2="53.8389" gradientUnits="userSpaceOnUse">
<stop stop-color="#1483F3"/>
<stop offset="1" stop-color="#4BB3F9"/>
</linearGradient>
</defs>
</svg>
